<svg width="40" height="40" viewBox="0 0 40 40" fill="none" xmlns="http://www.w3.org/2000/svg">
<path d="M35.4833 9.81633L18.8167 26.483C18.1667 27.133 17.1167 27.133 16.4667 26.483L11.75 21.7663C11.1 21.1163 11.1 20.0663 11.75 19.4163C12.4 18.7663 13.45 18.7663 14.1 19.4163L17.6333 22.9497L33.1167 7.46633C33.7667 6.81633 34.8167 6.81633 35.4667 7.46633C36.1333 8.11633 36.1333 9.16633 35.4833 9.81633ZM20 33.333C12.15 33.333 5.86667 26.5163 6.75 18.4997C7.4 12.633 11.95 7.81633 17.7667 6.84966C20.7833 6.34966 23.65 6.883 26.0833 8.14966C26.7333 8.483 27.5167 8.36633 28.0333 7.84966C28.8333 7.04966 28.6333 5.69966 27.6333 5.183C25.1833 3.933 22.4167 3.24966 19.4667 3.333C10.9 3.59966 3.78333 10.5663 3.35 19.1163C2.86667 28.733 10.5 36.6663 20 36.6663C22 36.6663 23.9 36.3163 25.6833 35.6663C26.8167 35.2497 27.1333 33.783 26.2667 32.9163C25.8167 32.4663 25.1333 32.2997 24.5333 32.533C23.1167 33.0497 21.5833 33.333 20 33.333ZM31.6667 24.9997H28.3333C27.4167 24.9997 26.6667 25.7497 26.6667 26.6663C26.6667 27.583 27.4167 28.333 28.3333 28.333H31.6667V31.6663C31.6667 32.583 32.4167 33.333 33.3333 33.333C34.25 33.333 35 32.583 35 31.6663V28.333H38.3333C39.25 28.333 40 27.583 40 26.6663C40 25.7497 39.25 24.9997 38.3333 24.9997H35V21.6663C35 20.7497 34.25 19.9997 33.3333 19.9997C32.4167 19.9997 31.6667 20.7497 31.6667 21.6663V24.9997Z" fill="#FBFFFF"/>
</svg>
