<svg width="32" height="32" viewBox="0 0 32 32" fill="none" xmlns="http://www.w3.org/2000/svg">
<path d="M5.32917 25.2585C4.91963 25.629 4.88801 26.2614 5.25855 26.6709C5.62908 27.0805 6.26146 27.1121 6.671 26.7415L5.32917 25.2585ZM27.6709 7.74161C28.0805 7.37108 28.1121 6.7387 27.7415 6.32916C27.371 5.91963 26.7386 5.88801 26.3291 6.25854L27.6709 7.74161ZM26.329 26.7415C26.7385 27.112 27.3709 27.0804 27.7414 26.6708C28.112 26.2613 28.0804 25.6289 27.6708 25.2584L26.329 26.7415ZM6.67091 6.25846C6.26137 5.88793 5.629 5.91955 5.25846 6.32909C4.88793 6.73863 4.91955 7.371 5.32909 7.74154L6.67091 6.25846ZM6.00008 26C6.671 26.7415 6.67105 26.7415 6.67114 26.7414C6.67124 26.7413 6.67139 26.7412 6.67158 26.741C6.6719 26.7407 6.67263 26.7401 6.67333 26.7394C6.6749 26.738 6.6772 26.7359 6.68031 26.7331C6.68647 26.7275 6.69575 26.7191 6.70796 26.7081C6.73243 26.686 6.76887 26.653 6.81674 26.6097C6.91248 26.5231 7.05398 26.395 7.23697 26.2295C7.60296 25.8983 8.13495 25.417 8.79897 24.8162C10.127 23.6147 11.9832 21.9353 14.0956 20.024C18.3204 16.2016 23.5704 11.4516 27.6709 7.74161L26.3291 6.25854C22.2286 9.96851 16.9786 14.7185 12.7538 18.541C10.6413 20.4522 8.78519 22.1316 7.45715 23.3332C6.79313 23.9339 6.26113 24.4153 5.89514 24.7464C5.71215 24.912 5.57066 25.04 5.47491 25.1266C5.42704 25.1699 5.39061 25.2029 5.36614 25.225C5.35389 25.2361 5.34467 25.2444 5.33848 25.25C5.3354 25.2528 5.33305 25.255 5.33151 25.2564C5.33059 25.2572 5.33029 25.2575 5.32976 25.2579C5.32956 25.2581 5.32942 25.2582 5.32932 25.2583C5.32922 25.2584 5.32917 25.2585 6.00008 26ZM27.6708 25.2584C27.6439 25.2341 27.6017 25.1958 27.5749 25.1716C27.5589 25.1571 27.543 25.1427 27.527 25.1283C27.5111 25.1139 27.4952 25.0995 27.4793 25.0851C27.4634 25.0707 27.4475 25.0563 27.4316 25.0419C27.4157 25.0276 27.3998 25.0132 27.384 24.9989C27.3681 24.9845 27.3523 24.9702 27.3365 24.9559C27.3206 24.9415 27.3048 24.9272 27.289 24.9129C27.1851 24.8189 27.2035 24.8356 27.1 24.742C27.0843 24.7278 27.0687 24.7136 27.053 24.6994C27.0373 24.6852 27.0217 24.6711 27.006 24.6569C26.9904 24.6427 26.9748 24.6286 26.9591 24.6145C26.9435 24.6003 26.9279 24.5862 26.9123 24.5721C26.8967 24.558 26.8812 24.5439 26.8656 24.5298C26.85 24.5158 26.8345 24.5017 26.8189 24.4876C26.8034 24.4736 26.7879 24.4595 26.7723 24.4455C26.7568 24.4314 26.7413 24.4174 26.7258 24.4034C26.7187 24.3969 26.5473 24.2419 26.5406 24.2358C26.5208 24.2179 26.4681 24.1702 26.4484 24.1524C26.4177 24.1246 26.3871 24.0969 26.3565 24.0692C26.3412 24.0554 26.3259 24.0416 26.3107 24.0278C26.2954 24.014 26.2801 24.0002 26.2649 23.9864C26.2497 23.9726 26.2344 23.9588 26.2192 23.945C26.204 23.9313 26.1888 23.9175 26.1736 23.9038C25.9228 23.6768 25.6983 23.4737 25.4534 23.2521C25.3491 23.1577 25.2027 23.0253 25.0998 22.9322C25.0851 22.9189 25.0705 22.9057 25.0559 22.8925C25.0412 22.8792 25.0266 22.866 25.012 22.8528C24.9974 22.8396 24.9828 22.8264 24.9682 22.8132C24.9536 22.8 24.9391 22.7868 24.9245 22.7736C24.88 22.7334 24.7944 22.6559 24.7503 22.616C24.7358 22.6029 24.7213 22.5898 24.7069 22.5767C24.6924 22.5636 24.678 22.5506 24.6635 22.5375C24.6491 22.5244 24.6347 22.5114 24.6203 22.4983C24.6058 22.4853 24.5914 22.4723 24.577 22.4592C24.5626 22.4462 24.5482 22.4332 24.5339 22.4202C24.5195 22.4072 24.5051 22.3942 24.4908 22.3812C24.4598 22.3532 24.4357 22.3313 24.4048 22.3034C24.3852 22.2856 24.3385 22.2434 24.319 22.2258C24.3047 22.2128 24.2904 22.1999 24.2762 22.187C24.2619 22.1741 24.2477 22.1612 24.2334 22.1484C24.2192 22.1355 24.205 22.1226 24.1907 22.1097C24.1765 22.0969 24.1623 22.084 24.1481 22.0712C24.1339 22.0583 24.1197 22.0455 24.1055 22.0326C24.0914 22.0198 24.0772 22.007 24.063 21.9942C23.9067 21.8527 23.8801 21.8287 23.7249 21.6883C23.6089 21.5833 23.5052 21.4895 23.3903 21.3855C23.2831 21.2885 23.3311 21.332 23.2242 21.2353C23.2026 21.2157 23.0803 21.105 23.0589 21.0857C22.9479 20.9853 23.0052 21.0371 22.8945 20.9369C22.8494 20.8961 22.8575 20.9035 22.8125 20.8628C22.7989 20.8504 22.7852 20.8381 22.7716 20.8257C22.758 20.8134 22.7443 20.8011 22.7307 20.7888C22.718 20.7772 22.6619 20.7265 22.6492 20.715C22.5822 20.6544 22.6346 20.7018 22.5678 20.6413C22.5542 20.6291 22.5407 20.6168 22.5271 20.6046C22.5136 20.5923 22.5001 20.5801 22.4865 20.5678C22.473 20.5556 22.4595 20.5434 22.446 20.5312C22.4325 20.5189 22.419 20.5067 22.4055 20.4945C22.392 20.4823 22.3785 20.4701 22.365 20.4579C22.3516 20.4457 22.3381 20.4335 22.3246 20.4214C22.3007 20.3997 22.2679 20.37 22.2439 20.3483C22.218 20.3249 22.1088 20.2261 22.0831 20.2028C22.0697 20.1907 22.0563 20.1786 22.0429 20.1665C22.0296 20.1544 22.0162 20.1423 22.0029 20.1302C21.9895 20.1182 21.9762 20.1061 21.9628 20.094C21.9495 20.082 21.9362 20.0699 21.9228 20.0578C21.8585 19.9996 21.9073 20.0437 21.843 19.9856C21.8297 19.9735 21.8164 19.9615 21.8031 19.9495C21.7898 19.9375 21.7765 19.9255 21.7633 19.9135C21.75 19.9014 21.7367 19.8894 21.7235 19.8774C21.7102 19.8655 21.697 19.8535 21.6837 19.8415C21.6705 19.8295 21.6572 19.8175 21.644 19.8055C21.6308 19.7936 21.6175 19.7816 21.6043 19.7696C21.5729 19.7412 21.5564 19.7263 21.5251 19.6979C21.5119 19.686 21.4987 19.6741 21.4855 19.6621C21.4723 19.6502 21.4591 19.6383 21.446 19.6264C21.3771 19.5641 21.4358 19.6172 21.367 19.5549C21.3538 19.543 21.3407 19.5311 21.3276 19.5192C21.3144 19.5074 21.3013 19.4955 21.2882 19.4836C21.275 19.4717 21.2619 19.4599 21.2488 19.448C21.2357 19.4361 21.2226 19.4243 21.2095 19.4124C21.1964 19.4006 21.1833 19.3887 21.1702 19.3769C21.1571 19.365 21.144 19.3532 21.1309 19.3413C21.0471 19.2655 21.1363 19.3462 21.0525 19.2704C21.0395 19.2586 21.0264 19.2468 21.0134 19.235C21.0003 19.2232 20.9873 19.2114 20.9742 19.1996C20.87 19.1052 20.9222 19.1525 20.8181 19.0583C20.7482 18.9951 20.81 19.051 20.7402 18.9878C20.7272 18.9761 20.7142 18.9643 20.7013 18.9526C20.6883 18.9409 20.6753 18.9291 20.6624 18.9174C20.6494 18.9057 20.6365 18.894 20.6235 18.8823C20.6106 18.8706 20.5977 18.8589 20.5847 18.8472C20.5397 18.8064 20.5522 18.8177 20.5072 18.777C20.3652 18.6486 20.3395 18.6253 20.1981 18.4974C20.1853 18.4857 20.1724 18.4741 20.1596 18.4625C20.1468 18.4509 20.1339 18.4393 20.1211 18.4277C20.1083 18.4161 20.0955 18.4045 20.0826 18.3929C20.0698 18.3813 20.057 18.3697 20.0442 18.3581C20.0154 18.332 19.9194 18.2452 19.8907 18.2192C19.8779 18.2077 19.8651 18.1961 19.8524 18.1845C19.8396 18.173 19.8268 18.1614 19.8141 18.1499C19.8013 18.1383 19.7885 18.1268 19.7758 18.1153C19.763 18.1037 19.7503 18.0922 19.7375 18.0807C19.7248 18.0691 19.712 18.0576 19.6993 18.0461C19.6866 18.0345 19.6738 18.023 19.6611 18.0115C19.6195 17.9738 19.6263 17.98 19.5847 17.9424C19.5191 17.883 19.3454 17.7258 19.2801 17.6668C19.2675 17.6553 19.2548 17.6439 19.2421 17.6324C19.2295 17.621 19.2168 17.6095 19.2042 17.5981C19.1915 17.5866 19.1788 17.5752 19.1662 17.5637C19.1535 17.5523 19.1409 17.5408 19.1283 17.5294C19.1156 17.518 19.103 17.5065 19.0903 17.4951C19.0777 17.4836 19.0651 17.4722 19.0524 17.4608C19.0398 17.4494 19.0272 17.4379 19.0145 17.4265C19.0019 17.4151 18.9893 17.4037 18.9767 17.3922C18.964 17.3808 18.9514 17.3694 18.9388 17.358C18.9262 17.3466 18.9136 17.3351 18.901 17.3237C18.8936 17.3171 18.8327 17.262 18.8253 17.2553C18.8127 17.2439 18.8001 17.2325 18.7875 17.2211C18.7749 17.2097 18.7623 17.1983 18.7497 17.1869C18.7371 17.1755 18.7245 17.1641 18.7119 17.1527C18.6994 17.1413 18.6868 17.13 18.6742 17.1186C18.6616 17.1072 18.649 17.0958 18.6364 17.0844C18.6239 17.073 18.6113 17.0616 18.5987 17.0503C18.5861 17.0389 18.5735 17.0275 18.561 17.0161C18.5484 17.0048 18.5358 16.9934 18.5233 16.982C18.5107 16.9706 18.4981 16.9593 18.4856 16.9479C18.473 16.9365 18.4604 16.9252 18.4479 16.9138C18.4353 16.9024 18.4228 16.8911 18.4102 16.8797C18.3976 16.8684 18.3851 16.857 18.3725 16.8456C18.3563 16.831 18.3134 16.7922 18.2972 16.7775C18.2847 16.7662 18.2721 16.7548 18.2596 16.7435C18.247 16.7321 18.2345 16.7208 18.222 16.7094C18.2094 16.6981 18.1969 16.6867 18.1843 16.6754C18.1718 16.664 18.1593 16.6527 18.1467 16.6413C18.1342 16.63 18.1217 16.6187 18.1091 16.6073C18.0966 16.596 18.0841 16.5847 18.0715 16.5733C18.059 16.562 18.0465 16.5506 18.034 16.5393C18.0214 16.528 18.0089 16.5166 17.9964 16.5053C17.9838 16.494 17.9713 16.4826 17.9588 16.4713C17.9463 16.46 17.9338 16.4487 17.9212 16.4373C17.9087 16.426 17.8962 16.4147 17.8837 16.4033C17.8712 16.392 17.8586 16.3807 17.8461 16.3694C17.8146 16.3408 17.8026 16.33 17.771 16.3014C17.7585 16.2901 17.746 16.2788 17.7335 16.2675C17.721 16.2562 17.7085 16.2448 17.696 16.2335C17.6835 16.2222 17.671 16.2109 17.6584 16.1996C17.6459 16.1882 17.6334 16.1769 17.6209 16.1656C17.5456 16.0975 17.6212 16.1659 17.5459 16.0977C17.5334 16.0864 17.5209 16.0751 17.5084 16.0638C17.4959 16.0525 17.4834 16.0412 17.4709 16.0299C17.3911 15.9577 17.2506 15.8306 17.1709 15.7584C17.1584 15.7471 17.1459 15.7358 17.1334 15.7245C17.1209 15.7132 17.1084 15.7019 17.0959 15.6906C17.0834 15.6793 17.0709 15.668 17.0584 15.6566C17.0459 15.6453 17.0334 15.634 17.0209 15.6227C17.0084 15.6114 16.9959 15.6001 16.9834 15.5888C16.9709 15.5775 16.9584 15.5662 16.9459 15.5549C16.9334 15.5435 16.9209 15.5322 16.9084 15.5209C16.8959 15.5096 16.8834 15.4983 16.8709 15.487C16.8584 15.4757 16.8459 15.4644 16.8334 15.4531C16.8209 15.4417 16.8084 15.4304 16.7958 15.4191C16.7833 15.4078 16.7708 15.3965 16.7583 15.3852C16.7458 15.3739 16.7333 15.3625 16.7208 15.3512C16.6415 15.2794 16.7251 15.3551 16.6458 15.2833C16.6385 15.2767 16.578 15.222 16.5707 15.2154C16.466 15.1207 16.5252 15.1743 16.4205 15.0795C16.408 15.0682 16.3955 15.0569 16.3829 15.0455C16.3704 15.0342 16.3579 15.0229 16.3454 15.0115C16.3328 15.0002 16.3203 14.9889 16.3078 14.9775C16.2953 14.9662 16.2827 14.9549 16.2702 14.9435C16.2577 14.9322 16.2451 14.9209 16.2326 14.9095C16.2201 14.8982 16.2075 14.8868 16.195 14.8755C16.1825 14.8642 16.1699 14.8528 16.1574 14.8415C16.1449 14.8301 16.1323 14.8188 16.1198 14.8074C16.1072 14.7961 16.0947 14.7847 16.0822 14.7734C16.0696 14.762 16.0571 14.7507 16.0445 14.7393C16.032 14.728 16.0194 14.7166 16.0069 14.7053C15.9943 14.6939 15.9818 14.6826 15.9692 14.6712C15.9567 14.6599 15.9441 14.6485 15.9315 14.6371C15.919 14.6258 15.9064 14.6144 15.8939 14.603C15.8813 14.5917 15.8687 14.5803 15.8562 14.5689C15.8436 14.5576 15.831 14.5462 15.8185 14.5348C15.7256 14.4508 15.7605 14.4824 15.6676 14.3983C15.655 14.3869 15.6424 14.3755 15.6298 14.3641C15.6172 14.3527 15.6046 14.3413 15.592 14.3299C15.5794 14.3186 15.5668 14.3072 15.5542 14.2958C15.5416 14.2844 15.529 14.273 15.5164 14.2616C15.5038 14.2502 15.4912 14.2387 15.4786 14.2273C15.466 14.2159 15.4534 14.2045 15.4408 14.1931C15.4282 14.1817 15.4156 14.1703 15.4029 14.1589C15.3903 14.1475 15.3777 14.136 15.3651 14.1246C15.1265 13.9088 14.9971 13.7917 14.757 13.5744C14.7492 13.5674 14.6885 13.5125 14.6806 13.5054C14.6679 13.4938 14.6552 13.4823 14.6424 13.4708C14.6297 13.4593 14.6169 13.4477 14.6042 13.4362C14.5915 13.4247 14.5787 13.4131 14.5659 13.4016C14.5532 13.3901 14.5404 13.3785 14.5277 13.367C14.5149 13.3554 14.5021 13.3439 14.4894 13.3323C14.4766 13.3208 14.4638 13.3092 14.4511 13.2976C14.4383 13.2861 14.4255 13.2745 14.4127 13.2629C14.3999 13.2514 14.3871 13.2398 14.3743 13.2282C14.3616 13.2167 14.3488 13.2051 14.336 13.1935C14.3232 13.1819 14.3103 13.1703 14.2975 13.1587C14.2847 13.1472 14.2719 13.1356 14.2591 13.124C14.2463 13.1124 14.2335 13.1008 14.2206 13.0892C14.2078 13.0776 14.195 13.066 14.1821 13.0543C14.1693 13.0427 14.1565 13.0311 14.1436 13.0195C14.1308 13.0079 14.1179 12.9963 14.1051 12.9846C14.0922 12.973 14.0794 12.9614 14.0665 12.9497C14.0537 12.9381 14.0408 12.9265 14.0279 12.9148C14.0151 12.9032 14.0022 12.8915 13.9893 12.8799C13.9764 12.8682 13.9635 12.8566 13.9507 12.8449C13.9378 12.8332 13.9249 12.8216 13.912 12.8099C13.8991 12.7982 13.8862 12.7866 13.8733 12.7749C13.8604 12.7632 13.8475 12.7515 13.8346 12.7399C13.8216 12.7282 13.8087 12.7165 13.7958 12.7048C13.7829 12.6931 13.7699 12.6814 13.757 12.6697C13.7449 12.6587 13.6915 12.6105 13.6793 12.5994C13.6664 12.5877 13.6534 12.576 13.6405 12.5643C13.6275 12.5525 13.6145 12.5408 13.6016 12.5291C13.5886 12.5173 13.5756 12.5056 13.5626 12.4938C13.5497 12.4821 13.5367 12.4703 13.5237 12.4586C13.1604 12.1299 12.6343 11.6539 12.2587 11.3141C12.2453 11.302 12.2319 11.2898 12.2185 11.2777C12.2051 11.2656 12.1917 11.2535 12.1783 11.2414C12.1439 11.2102 12.1323 11.1997 12.0978 11.1685C12.016 11.0945 12.0182 11.0965 11.9362 11.0223C11.9227 11.0101 11.9092 10.9979 11.8957 10.9857C11.8822 10.9735 11.8687 10.9612 11.8552 10.949C11.7912 10.8911 11.838 10.9334 11.774 10.8755C11.7604 10.8633 11.7469 10.851 11.7333 10.8387C11.7197 10.8265 11.7062 10.8142 11.6926 10.8019C11.679 10.7896 11.6654 10.7773 11.6518 10.765C11.6382 10.7527 11.6246 10.7404 11.611 10.7281C11.5916 10.7105 11.467 10.5978 11.4473 10.5799C11.4048 10.5415 11.4077 10.5441 11.3651 10.5056C11.3359 10.4792 11.3121 10.4576 11.2828 10.4311C11.2691 10.4187 11.2553 10.4063 11.2416 10.3938C11.2278 10.3814 11.214 10.3689 11.2003 10.3564C11.1865 10.344 11.1727 10.3315 11.1589 10.319C11.1451 10.3066 11.1313 10.2941 11.1175 10.2816C11.0358 10.2076 11.1164 10.2806 11.0346 10.2066C11.0159 10.1896 10.9703 10.1483 10.9515 10.1313C10.9376 10.1188 10.9237 10.1062 10.9098 10.0937C10.8959 10.0811 10.882 10.0685 10.8681 10.0559C10.8542 10.0433 10.8403 10.0308 10.8264 10.0182C10.8124 10.0056 10.7985 9.99295 10.7846 9.98034C10.7706 9.96772 10.7567 9.9551 10.7427 9.94247C10.7287 9.92984 10.7148 9.9172 10.7008 9.90455C10.6169 9.82862 10.7008 9.90456 10.6168 9.82857C10.5857 9.80041 10.4796 9.70445 10.4482 9.67602C10.4341 9.66327 10.42 9.65052 10.4059 9.63776C10.3918 9.625 10.3777 9.61222 10.3636 9.59945C10.3495 9.58667 10.3353 9.57388 10.3212 9.56108C10.307 9.54829 10.2929 9.53548 10.2787 9.52267C10.2491 9.49585 10.2233 9.47257 10.1936 9.44568C10.1794 9.43284 10.1652 9.41998 10.151 9.40712C10.1368 9.39425 10.1226 9.38138 10.1083 9.36849C10.0941 9.35561 10.0798 9.34272 10.0656 9.32982C10.0513 9.31692 10.037 9.30401 10.0228 9.2911C10.0085 9.27818 9.9942 9.26525 9.97991 9.25232C9.96561 9.23938 9.9513 9.22644 9.93699 9.21348C9.92267 9.20053 9.90834 9.18757 9.89401 9.1746C9.87967 9.16163 9.86532 9.14865 9.85097 9.13566C9.84038 9.12608 9.77537 9.06726 9.76471 9.05761C9.75031 9.04459 9.73591 9.03155 9.72149 9.01851C9.70707 9.00547 9.69265 8.99241 9.67821 8.97935C9.59295 8.90222 9.6768 8.97807 9.59146 8.90087C9.58893 8.89858 9.42009 8.74581 9.41723 8.74322C9.41446 8.74072 9.33258 8.66664 9.32973 8.66406C9.31513 8.65085 9.30051 8.63763 9.28589 8.62439C9.27126 8.61116 9.25663 8.59792 9.24198 8.58467C9.19373 8.54102 9.2023 8.54877 9.15397 8.50504C9.13928 8.49175 9.12458 8.47845 9.10987 8.46514C9.09516 8.45183 9.08044 8.43851 9.0657 8.42518C9.05097 8.41185 9.03623 8.39851 9.02147 8.38516C9.00671 8.37181 8.99195 8.35845 8.97717 8.34508C8.96239 8.33171 8.94761 8.31833 8.93281 8.30494C8.91801 8.29155 8.9032 8.27815 8.88837 8.26474C8.87355 8.25133 8.85872 8.23791 8.84388 8.22448C8.82903 8.21105 8.81418 8.19761 8.79931 8.18416C8.77637 8.1634 8.733 8.12416 8.70997 8.10333C8.65008 8.04914 8.59074 7.99545 8.53048 7.94093C8.51548 7.92735 8.50046 7.91377 8.48543 7.90017C8.47041 7.88658 8.45537 7.87297 8.44032 7.85935C8.42527 7.84574 8.4102 7.83211 8.39513 7.81847C8.38006 7.80483 8.36497 7.79118 8.34987 7.77752C8.33478 7.76386 8.31967 7.75019 8.30455 7.73651C8.28942 7.72283 8.27429 7.70914 8.25915 7.69544C8.244 7.68173 8.22884 7.66802 8.21368 7.6543C8.19851 7.64057 8.18333 7.62684 8.16813 7.61309C8.15294 7.59935 8.13774 7.58559 8.12252 7.57182C8.1073 7.55805 8.09207 7.54427 8.07683 7.53048C8.06159 7.5167 8.04634 7.50289 8.03107 7.48908C8.01581 7.47527 8.00053 7.46145 7.98524 7.44761C7.96995 7.43378 7.95465 7.41994 7.93933 7.40608C7.92402 7.39222 7.90869 7.37836 7.89335 7.36448C7.87801 7.3506 7.86266 7.33671 7.8473 7.32281C7.83193 7.30891 7.81656 7.295 7.80117 7.28108C7.78578 7.26715 7.77038 7.25322 7.75496 7.23927C7.73955 7.22533 7.72412 7.21137 7.70869 7.1974C7.67209 7.1643 7.65259 7.14665 7.6159 7.11345C7.60041 7.09944 7.58491 7.08541 7.5694 7.07138C7.55388 7.05734 7.53835 7.04329 7.52281 7.02923C7.50727 7.01517 7.49172 7.0011 7.47615 6.98702C7.46059 6.97293 7.44501 6.95884 7.42942 6.94473C7.41383 6.93062 7.39822 6.91651 7.38261 6.90238C7.36699 6.88825 7.35136 6.87411 7.33572 6.85995C7.32007 6.8458 7.30442 6.83163 7.28875 6.81746C7.27308 6.80328 7.2574 6.78909 7.2417 6.77489C7.226 6.76069 7.2103 6.74648 7.19457 6.73225C7.17885 6.71803 7.16312 6.70379 7.14737 6.68954C7.13162 6.6753 7.11586 6.66104 7.10009 6.64676C7.08431 6.63249 7.06852 6.61821 7.05272 6.60391C7.03692 6.58961 7.02111 6.57531 7.00528 6.56099C6.98945 6.54667 6.97361 6.53233 6.95776 6.51799C6.9419 6.50364 6.92603 6.48929 6.91015 6.47492C6.89427 6.46055 6.87838 6.44617 6.86247 6.43178C6.81392 6.38785 6.81551 6.38929 6.76685 6.34527C6.75089 6.33083 6.73491 6.31637 6.71892 6.3019C6.70293 6.28744 6.68693 6.27296 6.67091 6.25846L5.32909 7.74154C5.3451 7.75603 5.36111 7.77051 5.3771 7.78497C5.39309 7.79944 5.40906 7.8139 5.42503 7.82834C5.48762 7.88497 5.45816 7.85831 5.52064 7.91485C5.53655 7.92924 5.55244 7.94362 5.56833 7.95799C5.58421 7.97236 5.60007 7.98672 5.61593 8.00106C5.63178 8.0154 5.64763 8.02974 5.66345 8.04406C5.67928 8.05838 5.69509 8.07269 5.7109 8.08698C5.7267 8.10128 5.74248 8.11556 5.75826 8.12983C5.77403 8.14411 5.78979 8.15837 5.80554 8.17262C5.82129 8.18686 5.83703 8.2011 5.85275 8.21532C5.86847 8.22955 5.88418 8.24376 5.89987 8.25796C5.91557 8.27216 5.93125 8.28635 5.94692 8.30053C5.96259 8.3147 5.97825 8.32887 5.99389 8.34302C6.00953 8.35718 6.02516 8.37132 6.04078 8.38545C6.0564 8.39958 6.072 8.4137 6.08759 8.4278C6.10318 8.44191 6.11876 8.456 6.13433 8.47009C6.14989 8.48417 6.16545 8.49824 6.18099 8.5123C6.23279 8.55917 6.22238 8.54975 6.27407 8.59653C6.28956 8.61054 6.30504 8.62454 6.3205 8.63853C6.33597 8.65252 6.35142 8.6665 6.36686 8.68047C6.3823 8.69444 6.39772 8.7084 6.41314 8.72234C6.42855 8.73629 6.44395 8.75022 6.45934 8.76415C6.47473 8.77807 6.49011 8.79198 6.50547 8.80588C6.52083 8.81978 6.53618 8.83367 6.55152 8.84755C6.56686 8.86143 6.58219 8.8753 6.5975 8.88915C6.61282 8.90301 6.62812 8.91685 6.64341 8.93069C6.6587 8.94452 6.67398 8.95834 6.68924 8.97215C6.70451 8.98597 6.71976 8.99977 6.735 9.01356C6.75025 9.02735 6.76547 9.04112 6.78069 9.05489C6.79591 9.06866 6.81111 9.08242 6.82631 9.09616C6.88428 9.14861 6.95046 9.20849 7.00805 9.26059C7.02314 9.27425 7.03823 9.2879 7.0533 9.30154C7.06838 9.31518 7.08344 9.32881 7.09849 9.34242C7.11354 9.35604 7.12858 9.36965 7.14361 9.38324C7.15863 9.39684 7.17365 9.41043 7.18865 9.424C7.20366 9.43758 7.21865 9.45114 7.23363 9.46469C7.24861 9.47825 7.26358 9.49179 7.27854 9.50533C7.2935 9.51886 7.30844 9.53238 7.32338 9.54589C7.33831 9.55941 7.35323 9.57291 7.36815 9.5864C7.41551 9.62925 7.49955 9.70529 7.54655 9.74781C7.56137 9.76122 7.57618 9.77462 7.59098 9.78801C7.60578 9.8014 7.62057 9.81478 7.63534 9.82815C7.65012 9.84152 7.66489 9.85488 7.67964 9.86823C7.6944 9.88158 7.70914 9.89492 7.72388 9.90825C7.73861 9.92158 7.75333 9.9349 7.76804 9.94821C7.78275 9.96152 7.79745 9.97482 7.81214 9.98811C7.87784 10.0476 7.83454 10.0084 7.90015 10.0677C7.96487 10.1263 7.92328 10.0887 7.9879 10.1471C8.00251 10.1603 8.0171 10.1735 8.03168 10.1867C8.04627 10.1999 8.06084 10.2131 8.0754 10.2263C8.08996 10.2395 8.10451 10.2526 8.11905 10.2658C8.13359 10.2789 8.14812 10.2921 8.16264 10.3052C8.23278 10.3687 8.17958 10.3206 8.24964 10.3839C8.26411 10.397 8.27858 10.4101 8.29304 10.4232C8.3075 10.4363 8.32194 10.4494 8.33638 10.4624C8.35692 10.481 8.40242 10.5222 8.42288 10.5407C8.43728 10.5537 8.45167 10.5667 8.46604 10.5797C8.48042 10.5927 8.49478 10.6057 8.50914 10.6187C8.5235 10.6317 8.53784 10.6447 8.55218 10.6577C8.56652 10.6706 8.58084 10.6836 8.59516 10.6966C8.60948 10.7095 8.62378 10.7225 8.63808 10.7354C8.65238 10.7483 8.66666 10.7612 8.68094 10.7742C8.69522 10.7871 8.70949 10.8 8.72374 10.8129C8.738 10.8258 8.75225 10.8387 8.76649 10.8516C8.78073 10.8644 8.79496 10.8773 8.80918 10.8902C8.82339 10.9031 8.8376 10.9159 8.8518 10.9288C8.866 10.9416 8.88019 10.9544 8.89438 10.9673C8.90856 10.9801 8.92273 10.9929 8.93689 11.0057C8.95993 11.0266 8.99879 11.0617 9.02175 11.0825C9.03587 11.0953 9.04999 11.1081 9.06409 11.1208C9.0782 11.1336 9.0923 11.1463 9.10638 11.1591C9.12047 11.1718 9.13455 11.1846 9.14862 11.1973C9.16269 11.21 9.17675 11.2228 9.1908 11.2355C9.20485 11.2482 9.21889 11.2609 9.23292 11.2736C9.24695 11.2863 9.26098 11.299 9.27499 11.3116C9.28778 11.3232 9.34625 11.3761 9.35897 11.3876C9.37295 11.4003 9.38692 11.4129 9.40088 11.4255C9.41484 11.4382 9.42879 11.4508 9.44273 11.4634C9.45668 11.476 9.47061 11.4886 9.48454 11.5012C9.49846 11.5138 9.51238 11.5264 9.52629 11.539C9.54019 11.5516 9.55409 11.5642 9.56798 11.5767C9.58188 11.5893 9.59576 11.6019 9.60963 11.6144C9.71079 11.7059 9.84089 11.8236 9.94097 11.9142C9.95471 11.9266 9.96844 11.939 9.98216 11.9515C9.99589 11.9639 10.0096 11.9763 10.0233 11.9887C10.037 12.0011 10.0507 12.0135 10.0644 12.0259C10.0781 12.0383 10.0918 12.0506 10.1055 12.063C10.1191 12.0754 10.1328 12.0877 10.1465 12.1001C10.1601 12.1125 10.1738 12.1248 10.1874 12.1372C10.2484 12.1923 10.2083 12.1561 10.2692 12.2111C10.3294 12.2657 10.2906 12.2305 10.3508 12.285C10.3643 12.2972 10.3779 12.3095 10.3915 12.3218C10.405 12.3341 10.4186 12.3463 10.4322 12.3586C10.4741 12.3966 10.4715 12.3942 10.5134 12.4321C10.5269 12.4443 10.5404 12.4565 10.5539 12.4688C10.5674 12.481 10.5809 12.4932 10.5944 12.5054C10.7215 12.6204 10.7906 12.6829 10.9168 12.7971C10.9859 12.8596 10.928 12.8072 10.997 12.8697C11.0104 12.8818 11.0237 12.8938 11.0371 12.9059C11.0504 12.918 11.0637 12.93 11.0771 12.9421C11.0904 12.9541 11.1037 12.9662 11.117 12.9782C11.1303 12.9903 11.1436 13.0023 11.1569 13.0143C11.1785 13.0339 11.2151 13.067 11.2366 13.0865C11.2499 13.0985 11.2632 13.1105 11.2764 13.1225C11.2897 13.1345 11.303 13.1465 11.3162 13.1584C11.3294 13.1704 11.3427 13.1824 11.3559 13.1944C11.3692 13.2064 11.3824 13.2183 11.3956 13.2303C11.4088 13.2422 11.422 13.2542 11.4352 13.2662C11.4485 13.2781 11.4617 13.2901 11.4749 13.302C11.5 13.3247 11.5289 13.3509 11.554 13.3736C11.5671 13.3855 11.5803 13.3974 11.5935 13.4093C11.6066 13.4212 11.6198 13.4331 11.6329 13.445C11.6461 13.4569 11.6592 13.4688 11.6724 13.4807C11.6855 13.4926 11.6986 13.5044 11.7117 13.5163C11.7518 13.5526 11.7504 13.5513 11.7904 13.5875C11.8035 13.5994 11.8166 13.6112 11.8297 13.6231C11.8428 13.6349 11.8559 13.6467 11.869 13.6586C11.8821 13.6704 11.8951 13.6822 11.9082 13.6941C11.9213 13.7059 11.9343 13.7177 11.9474 13.7295C11.9604 13.7413 11.9735 13.7531 11.9865 13.7649C11.9996 13.7768 12.0126 13.7886 12.0257 13.8003C12.0387 13.8121 12.0517 13.8239 12.0648 13.8357C12.0778 13.8475 12.0908 13.8593 12.1038 13.8711C12.1546 13.917 12.1311 13.8957 12.1818 13.9416C12.241 13.9952 12.4342 14.17 12.4927 14.2229C12.5089 14.2375 12.6315 14.3485 12.6475 14.3629C12.6604 14.3746 12.6732 14.3862 12.6861 14.3979C12.699 14.4095 12.7118 14.4212 12.7247 14.4328C12.7376 14.4444 12.7504 14.4561 12.7633 14.4677C12.7761 14.4793 12.789 14.4909 12.8018 14.5026C12.8146 14.5142 12.8275 14.5258 12.8403 14.5374C12.8532 14.549 12.866 14.5606 12.8788 14.5722C12.8916 14.5838 12.9045 14.5954 12.9173 14.607C12.9301 14.6186 12.9429 14.6302 12.9557 14.6418C12.9685 14.6534 12.9813 14.665 12.9941 14.6766C13.0069 14.6882 13.0197 14.6997 13.0325 14.7113C13.0366 14.715 13.1052 14.777 13.1092 14.7807C13.1339 14.803 13.1612 14.8278 13.1858 14.85C13.1986 14.8616 13.2114 14.8731 13.2241 14.8847C13.2369 14.8962 13.2496 14.9077 13.2624 14.9193C13.2751 14.9308 13.2879 14.9423 13.3006 14.9539C13.3133 14.9654 13.3261 14.9769 13.3388 14.9884C13.382 15.0275 13.372 15.0185 13.4152 15.0575C13.5186 15.1511 13.4643 15.1019 13.5676 15.1955C13.6426 15.2633 13.6449 15.2654 13.7198 15.3331C13.771 15.3795 13.7445 15.3555 13.7958 15.4019C13.8084 15.4133 13.8211 15.4248 13.8337 15.4362C13.8464 15.4476 13.859 15.4591 13.8717 15.4705C13.951 15.5423 13.8682 15.4674 13.9475 15.5391C13.9601 15.5506 13.9728 15.562 13.9854 15.5734C13.998 15.5848 14.0106 15.5963 14.0233 15.6077C14.0359 15.6191 14.0485 15.6305 14.0611 15.6419C14.0737 15.6534 14.0863 15.6648 14.099 15.6762C14.1063 15.6829 14.1672 15.738 14.1746 15.7446C14.1872 15.756 14.1998 15.7674 14.2124 15.7788C14.225 15.7902 14.2376 15.8016 14.2502 15.813C14.2821 15.8418 14.2939 15.8525 14.3257 15.8814C14.3754 15.9263 14.3516 15.9047 14.4012 15.9497C14.4138 15.961 14.4264 15.9724 14.4389 15.9838C14.4515 15.9952 14.4641 16.0065 14.4767 16.0179C14.4892 16.0293 14.5018 16.0406 14.5143 16.052C14.5269 16.0634 14.5395 16.0747 14.552 16.0861C14.5646 16.0975 14.5772 16.1088 14.5897 16.1202C14.6023 16.1316 14.6148 16.1429 14.6274 16.1543C14.6399 16.1656 14.6525 16.177 14.665 16.1884C14.6776 16.1997 14.6901 16.2111 14.7027 16.2224C14.7152 16.2338 14.7278 16.2451 14.7403 16.2565C14.7529 16.2678 14.7654 16.2792 14.778 16.2905C14.7905 16.3019 14.803 16.3132 14.8156 16.3245C14.8281 16.3359 14.8406 16.3472 14.8532 16.3586C14.8657 16.3699 14.8782 16.3813 14.8908 16.3926C14.9033 16.4039 14.9158 16.4153 14.9284 16.4266C14.9409 16.4379 14.9534 16.4493 14.966 16.4606C14.9785 16.4719 14.991 16.4833 15.0035 16.4946C15.0161 16.5059 15.0286 16.5173 15.0411 16.5286C15.0536 16.5399 15.0662 16.5513 15.0787 16.5626C15.0912 16.5739 15.1037 16.5852 15.1162 16.5966C15.1288 16.6079 15.1413 16.6192 15.1538 16.6305C15.1853 16.6591 15.1973 16.6699 15.2289 16.6985C15.2414 16.7098 15.2539 16.7211 15.2664 16.7324C15.2789 16.7438 15.2914 16.7551 15.3039 16.7664C15.3164 16.7777 15.329 16.789 15.3415 16.8004C15.354 16.8117 15.3665 16.823 15.379 16.8343C15.4543 16.9025 15.3787 16.834 15.454 16.9022C15.4665 16.9135 15.479 16.9248 15.4915 16.9361C15.504 16.9474 15.5165 16.9588 15.529 16.9701C15.6088 17.0422 15.7493 17.1694 15.829 17.2415C15.8415 17.2528 15.854 17.2641 15.8665 17.2754C15.879 17.2867 15.8915 17.298 15.904 17.3093C15.9165 17.3207 15.929 17.332 15.9415 17.3433C15.954 17.3546 15.9665 17.3659 15.979 17.3772C15.9915 17.3885 16.004 17.3998 16.0165 17.4111C16.029 17.4224 16.0415 17.4338 16.054 17.4451C16.0665 17.4564 16.079 17.4677 16.0915 17.479C16.104 17.4903 16.1165 17.5016 16.129 17.5129C16.1415 17.5242 16.1541 17.5356 16.1666 17.5469C16.1791 17.5582 16.1916 17.5695 16.2041 17.5808C16.2166 17.5921 16.2291 17.6034 16.2416 17.6147C16.2541 17.6261 16.2666 17.6374 16.2791 17.6487C16.3585 17.7205 16.2748 17.6448 16.3541 17.7166C16.3667 17.7279 16.3792 17.7392 16.3917 17.7505C16.4042 17.7619 16.4167 17.7732 16.4292 17.7845C16.5339 17.8792 16.4747 17.8256 16.5794 17.9204C16.5919 17.9317 16.6045 17.9431 16.617 17.9544C16.6295 17.9657 16.642 17.977 16.6545 17.9884C16.6671 17.9997 16.6796 18.011 16.6921 18.0224C16.7047 18.0337 16.7172 18.045 16.7297 18.0564C16.7422 18.0677 16.7548 18.0791 16.7673 18.0904C16.7798 18.1017 16.7924 18.1131 16.8049 18.1244C16.8174 18.1358 16.83 18.1471 16.8425 18.1584C16.8551 18.1698 16.8676 18.1811 16.8801 18.1925C16.9239 18.232 16.9869 18.2891 17.0307 18.3287C17.0433 18.3401 17.0558 18.3514 17.0684 18.3628C17.0809 18.3742 17.0935 18.3855 17.106 18.3969C17.1186 18.4082 17.1312 18.4196 17.1437 18.431C17.1563 18.4423 17.1689 18.4537 17.1814 18.4651C17.1963 18.4785 17.3174 18.5881 17.3324 18.6016C17.3449 18.613 17.3575 18.6244 17.3701 18.6358C17.3827 18.6472 17.3953 18.6586 17.4079 18.67C17.4205 18.6814 17.4331 18.6928 17.4457 18.7042C17.4583 18.7156 17.4709 18.727 17.4835 18.7384C17.4961 18.7498 17.5087 18.7612 17.5213 18.7726C17.5339 18.784 17.5465 18.7954 17.5591 18.8068C17.5717 18.8182 17.5844 18.8296 17.597 18.8411C17.6096 18.8525 17.6222 18.8639 17.6348 18.8753C17.8734 19.0912 18.0028 19.2082 18.2429 19.4255C18.2556 19.437 18.2684 19.4485 18.2811 19.46C18.2938 19.4715 18.3065 19.483 18.3193 19.4946C18.332 19.5061 18.3447 19.5176 18.3575 19.5291C18.3702 19.5407 18.383 19.5522 18.3957 19.5637C18.4341 19.5985 18.4338 19.5982 18.4722 19.633C18.485 19.6445 18.4978 19.6561 18.5105 19.6676C18.5233 19.6792 18.5361 19.6907 18.5489 19.7023C18.5908 19.7402 18.6603 19.8031 18.7024 19.8412C18.7816 19.9129 18.7 19.839 18.7793 19.9108C18.7921 19.9224 18.8049 19.934 18.8178 19.9456C18.8306 19.9572 18.8434 19.9688 18.8563 19.9804C18.8691 19.992 18.882 20.0037 18.8948 20.0153C18.9077 20.0269 18.9205 20.0386 18.9334 20.0502C18.9462 20.0618 18.9591 20.0735 18.972 20.0851C18.9849 20.0968 18.9977 20.1084 19.0106 20.1201C19.0235 20.1317 19.0364 20.1434 19.0492 20.155C19.0621 20.1667 19.075 20.1783 19.0879 20.19C19.1008 20.2017 19.1137 20.2133 19.1266 20.225C19.1395 20.2367 19.1524 20.2484 19.1654 20.2601C19.2244 20.3135 19.4165 20.4873 19.4762 20.5413C19.9023 20.9269 20.3028 21.2892 20.7412 21.6859C20.8009 21.7398 20.8422 21.7773 20.9021 21.8314C20.916 21.844 20.9688 21.8918 20.9828 21.9044C20.9963 21.9166 21.0097 21.9288 21.0232 21.941C21.0367 21.9532 21.0502 21.9654 21.0637 21.9776C21.0772 21.9898 21.0907 22.002 21.1042 22.0142C21.1177 22.0265 21.1312 22.0387 21.1447 22.0509C21.1582 22.0631 21.1718 22.0754 21.1853 22.0876C21.1988 22.0999 21.2124 22.1121 21.2259 22.1244C21.2395 22.1367 21.253 22.1489 21.2666 22.1612C21.2802 22.1735 21.2937 22.1858 21.3073 22.198C21.349 22.2357 21.3472 22.2341 21.3889 22.2719C21.4025 22.2842 21.4161 22.2965 21.4298 22.3088C21.4434 22.3212 21.457 22.3335 21.4707 22.3458C21.5207 22.3911 21.5026 22.3747 21.5526 22.42C21.6302 22.4902 21.6393 22.4984 21.7171 22.5688C21.7309 22.5812 21.7446 22.5937 21.7584 22.6061C21.7721 22.6186 21.7859 22.631 21.7997 22.6435C21.8325 22.6732 21.8495 22.6886 21.8824 22.7183C21.9587 22.7874 21.9719 22.7993 22.0485 22.8686C22.1011 22.9162 22.0791 22.8963 22.1318 22.944C22.1481 22.9588 22.199 23.0048 22.2154 23.0196C22.2293 23.0322 22.2432 23.0448 22.2572 23.0575C22.2712 23.0701 22.2851 23.0827 22.2991 23.0954C22.3131 23.108 22.3271 23.1207 22.3411 23.1333C22.3551 23.146 22.3691 23.1587 22.3831 23.1714C22.3971 23.184 22.4111 23.1967 22.4252 23.2094C22.4392 23.2221 22.4532 23.2348 22.4673 23.2475C22.4813 23.2602 22.4954 23.273 22.5095 23.2857C22.5235 23.2984 22.5376 23.3112 22.5517 23.3239C22.5658 23.3366 22.5799 23.3494 22.594 23.3622C22.6081 23.3749 22.6222 23.3877 22.6363 23.4005C22.6505 23.4133 22.6646 23.426 22.6787 23.4388C22.6929 23.4516 22.707 23.4644 22.7212 23.4773C22.7354 23.4901 22.7495 23.5029 22.7637 23.5157C22.7779 23.5285 22.7921 23.5414 22.8063 23.5542C22.8205 23.5671 22.8347 23.5799 22.8489 23.5928C22.8631 23.6057 22.8774 23.6185 22.8916 23.6314C22.9058 23.6443 22.9201 23.6572 22.9343 23.6701C22.9486 23.683 22.9629 23.6959 22.9771 23.7088C23.0148 23.7429 23.0252 23.7523 23.0629 23.7864C23.1524 23.8674 23.3177 24.0169 23.4085 24.0991C23.5662 24.2418 23.5988 24.2713 23.7579 24.4153C23.7726 24.4285 23.7872 24.4418 23.8019 24.455C23.8166 24.4683 23.8313 24.4816 23.8459 24.4949C23.8606 24.5082 23.8753 24.5215 23.89 24.5348C23.9048 24.5481 23.9195 24.5614 23.9342 24.5747C23.9599 24.598 24.0855 24.7116 24.1115 24.7352C24.357 24.9573 24.5804 25.1594 24.8318 25.3868C24.847 25.4006 24.8622 25.4143 24.8774 25.4281C24.8926 25.4419 24.9078 25.4556 24.9231 25.4694C24.9383 25.4832 24.9536 25.497 24.9688 25.5108C24.9841 25.5247 24.9994 25.5385 25.0147 25.5523C25.0392 25.5745 25.1738 25.6963 25.1987 25.7188C25.2183 25.7366 25.2715 25.7847 25.2912 25.8025C25.3067 25.8165 25.3221 25.8305 25.3376 25.8445C25.353 25.8585 25.3685 25.8725 25.384 25.8865C25.3995 25.9005 25.415 25.9145 25.4305 25.9285C25.446 25.9426 25.4616 25.9566 25.4771 25.9707C25.5315 26.0199 25.516 26.0059 25.5705 26.0552C25.7096 26.181 25.8064 26.2686 25.9472 26.396C25.963 26.4103 25.9788 26.4246 25.9946 26.4389C26.0105 26.4533 26.0263 26.4676 26.0422 26.4819C26.058 26.4963 26.0739 26.5106 26.0898 26.525C26.1056 26.5394 26.1215 26.5538 26.1374 26.5681C26.2112 26.6349 26.1592 26.5878 26.2331 26.6547C26.2922 26.7081 26.2698 26.6879 26.329 26.7415L27.6708 25.2584Z" fill="black"/>
</svg>
