<svg width="56" height="57" viewBox="0 0 56 57" fill="none" xmlns="http://www.w3.org/2000/svg">
<g filter="url(#filter0_d_273_22481)">
<circle cx="24" cy="24.1045" r="20" fill="url(#paint0_linear_273_22481)"/>
</g>
<g clip-path="url(#clip0_273_22481)">
<path d="M26.4516 35.9404C26.3344 35.9451 26.2594 35.9545 26.1844 35.9545C24.5813 35.9545 22.9828 35.9498 21.3797 35.9592C21.1547 35.9592 21.0938 35.8983 21.0938 35.6733C21.0984 31.942 21.0984 28.2061 21.0984 24.4748C21.0984 24.3764 21.0984 24.2779 21.0984 24.1514C20.2266 24.1514 19.3781 24.1514 18.5156 24.1514C18.5156 22.8201 18.5156 21.5123 18.5156 20.167C18.6047 20.167 18.6891 20.167 18.7687 20.167C19.4719 20.167 20.175 20.1623 20.8781 20.1717C21.0562 20.1717 21.1031 20.1201 21.1031 19.9467C21.0938 18.9014 21.0938 17.8514 21.1031 16.8061C21.1078 16.0748 21.225 15.3623 21.5625 14.7014C22.0453 13.7686 22.8094 13.1639 23.775 12.7889C24.5625 12.4795 25.3922 12.367 26.2266 12.3529C27.5859 12.3342 28.9453 12.3436 30.3047 12.3389C30.4313 12.3389 30.5344 12.3342 30.5344 12.5123C30.5297 13.8014 30.5297 15.0904 30.5297 16.3795C30.5297 16.3936 30.525 16.4076 30.5063 16.4686C30.4266 16.4686 30.3375 16.4686 30.2484 16.4686C29.4047 16.4686 28.5609 16.4639 27.7172 16.4686C27.2297 16.4686 26.8359 16.6654 26.5875 17.092C26.5125 17.2186 26.4656 17.3826 26.4656 17.5326C26.4516 18.3295 26.4656 19.1264 26.4563 19.9233C26.4563 20.1108 26.5125 20.1623 26.6953 20.1623C27.8672 20.1529 29.0391 20.1576 30.2109 20.1576C30.3047 20.1576 30.3938 20.1576 30.5531 20.1576C30.3891 21.4983 30.2297 22.8108 30.0656 24.1373C28.8469 24.1373 27.6609 24.1373 26.4516 24.1373C26.4516 28.0795 26.4516 31.9983 26.4516 35.9404Z" fill="#FBFFFF"/>
</g>
<defs>
<filter id="filter0_d_273_22481" x="0" y="0.104492" width="56" height="56" filterUnits="userSpaceOnUse" color-interpolation-filters="sRGB">
<feFlood flood-opacity="0" result="BackgroundImageFix"/>
<feColorMatrix in="SourceAlpha" type="matrix" values="0 0 0 0 0 0 0 0 0 0 0 0 0 0 0 0 0 0 127 0" result="hardAlpha"/>
<feOffset dx="4" dy="4"/>
<feGaussianBlur stdDeviation="4"/>
<feComposite in2="hardAlpha" operator="out"/>
<feColorMatrix type="matrix" values="0 0 0 0 0 0 0 0 0 0 0 0 0 0 0 0 0 0 0.1 0"/>
<feBlend mode="normal" in2="BackgroundImageFix" result="effect1_dropShadow_273_22481"/>
<feBlend mode="normal" in="SourceGraphic" in2="effect1_dropShadow_273_22481" result="shape"/>
</filter>
<linearGradient id="paint0_linear_273_22481" x1="4" y1="4.10449" x2="46.9344" y2="7.55117" gradientUnits="userSpaceOnUse">
<stop stop-color="#AF87FF"/>
<stop offset="0.9999" stop-color="#5B7FFF"/>
<stop offset="1" stop-color="#D1DBFF"/>
</linearGradient>
<clipPath id="clip0_273_22481">
<rect width="24" height="24" fill="white" transform="translate(12 12.1045)"/>
</clipPath>
</defs>
</svg>
