<svg width="32" height="34" viewBox="0 0 32 34" fill="none" xmlns="http://www.w3.org/2000/svg">
<path d="M17.4933 2.91821L10.1067 10.7665C9.61333 11.2907 9.33333 12.0132 9.33333 12.764V26.9165C9.33333 28.4749 10.5333 29.7499 12 29.7499H24C25.0667 29.7499 26.0267 29.0699 26.4533 28.0357L30.8 17.2549C31.92 14.4499 29.9867 11.3332 27.12 11.3332H19.5867L20.8533 4.84487C20.9867 4.13654 20.7867 3.41404 20.3067 2.90404C19.52 2.08237 18.2667 2.08237 17.4933 2.91821ZM3.99999 29.7499C5.46666 29.7499 6.66666 28.4749 6.66666 26.9165V15.5832C6.66666 14.0249 5.46666 12.7499 3.99999 12.7499C2.53333 12.7499 1.33333 14.0249 1.33333 15.5832V26.9165C1.33333 28.4749 2.53333 29.7499 3.99999 29.7499Z" fill="url(#paint0_linear_273_15728)"/>
<defs>
<linearGradient id="paint0_linear_273_15728" x1="1.33333" y1="2.28955" x2="33.2718" y2="5.07096" gradientUnits="userSpaceOnUse">
<stop stop-color="#AF87FF"/>
<stop offset="0.9999" stop-color="#5B7FFF"/>
<stop offset="1" stop-color="#D1DBFF"/>
</linearGradient>
</defs>
</svg>
