<svg width="34" height="34" viewBox="0 0 34 34" fill="none" xmlns="http://www.w3.org/2000/svg">
<path d="M2.7868 18.3196V28C2.7868 30.7614 5.02538 33 7.7868 33H17M2.7868 18.3196H30.8858C30.9769 18.3196 31.0508 18.3934 31.0508 18.4845V18.4845M2.7868 18.3196L2.27826 17.8032C1.45913 16.9714 1 15.8508 1 14.6834V14.6834C1 12.2278 2.99067 10.2371 5.44628 10.2371H17M31.0508 18.4845V28C31.0508 30.7614 28.8122 33 26.0508 33H17M31.0508 18.4845L31.7217 17.8032C32.5409 16.9714 33 15.8508 33 14.6834V14.6834C33 12.2278 31.0093 10.2371 28.5537 10.2371H17M17 10.2371V33M17 10.2371L6.97144 5.8413C6.20545 5.50554 5.71066 4.74842 5.71066 3.91208V3.91208C5.71066 3.13482 6.1387 2.42072 6.8242 2.05435L7.77876 1.54418C8.43688 1.19245 9.19706 1.08126 9.92835 1.22978V1.22978C10.7639 1.39946 11.4974 1.89489 11.9668 2.60657L17 10.2371ZM17 10.2371L20.3199 4.45776C20.7523 3.70509 21.3732 3.07794 22.1215 2.63802L22.7226 2.28464C23.5815 1.77965 24.6081 1.64305 25.5692 1.90581L26.9178 2.27452C27.7277 2.49593 28.2893 3.23175 28.2893 4.07132V4.07132C28.2893 4.81092 27.8518 5.48045 27.1744 5.77737L17 10.2371Z" stroke="url(#paint0_linear_148_1275)" stroke-width="2"/>
<defs>
<linearGradient id="paint0_linear_148_1275" x1="1" y1="1" x2="35.3475" y2="3.75734" gradientUnits="userSpaceOnUse">
<stop stop-color="#AF87FF"/>
<stop offset="0.9999" stop-color="#5B7FFF"/>
<stop offset="1" stop-color="#D1DBFF"/>
</linearGradient>
</defs>
</svg>
