<svg width="35" height="34" viewBox="0 0 35 34" fill="none" xmlns="http://www.w3.org/2000/svg">
<path d="M3.2868 18.3196V28C3.2868 30.7614 5.52538 33 8.2868 33H17.5M3.2868 18.3196H31.3858C31.4769 18.3196 31.5508 18.3934 31.5508 18.4845V18.4845M3.2868 18.3196L2.77826 17.8032C1.95913 16.9714 1.5 15.8508 1.5 14.6834V14.6834C1.5 12.2278 3.49067 10.2371 5.94628 10.2371H17.5M31.5508 18.4845V28C31.5508 30.7614 29.3122 33 26.5508 33H17.5M31.5508 18.4845L32.2217 17.8032C33.0409 16.9714 33.5 15.8508 33.5 14.6834V14.6834C33.5 12.2278 31.5093 10.2371 29.0537 10.2371H17.5M17.5 10.2371V33M17.5 10.2371L7.47144 5.8413C6.70545 5.50554 6.21066 4.74842 6.21066 3.91208V3.91208C6.21066 3.13482 6.6387 2.42072 7.3242 2.05435L8.27876 1.54418C8.93688 1.19245 9.69706 1.08126 10.4284 1.22978V1.22978C11.2639 1.39946 11.9974 1.89489 12.4668 2.60657L17.5 10.2371ZM17.5 10.2371L20.8199 4.45776C21.2523 3.70509 21.8732 3.07794 22.6215 2.63802L23.2226 2.28464C24.0815 1.77965 25.1081 1.64305 26.0692 1.90581L27.4178 2.27452C28.2277 2.49593 28.7893 3.23175 28.7893 4.07132V4.07132C28.7893 4.81092 28.3518 5.48045 27.6744 5.77737L17.5 10.2371Z" stroke="url(#paint0_linear_795_4042)" stroke-width="2"/>
<defs>
<linearGradient id="paint0_linear_795_4042" x1="1.5" y1="1" x2="35.8475" y2="3.75734" gradientUnits="userSpaceOnUse">
<stop stop-color="#AF87FF"/>
<stop offset="0.9999" stop-color="#5B7FFF"/>
<stop offset="1" stop-color="#D1DBFF"/>
</linearGradient>
</defs>
</svg>
