<svg width="25" height="25" viewBox="0 0 25 25" fill="none" xmlns="http://www.w3.org/2000/svg">
<path d="M12.5 2.05225C6.98 2.05225 2.5 6.53225 2.5 12.0522C2.5 17.5722 6.98 22.0522 12.5 22.0522C18.02 22.0522 22.5 17.5722 22.5 12.0522C22.5 6.53225 18.02 2.05225 12.5 2.05225ZM12.5 5.05225C14.16 5.05225 15.5 6.39225 15.5 8.05225C15.5 9.71225 14.16 11.0522 12.5 11.0522C10.84 11.0522 9.5 9.71225 9.5 8.05225C9.5 6.39225 10.84 5.05225 12.5 5.05225ZM12.5 19.2522C11.3119 19.2523 10.1422 18.9582 9.09528 18.3964C8.04837 17.8345 7.15678 17.0224 6.5 16.0322C6.53 14.0422 10.5 12.9522 12.5 12.9522C14.49 12.9522 18.47 14.0422 18.5 16.0322C17.8432 17.0224 16.9516 17.8345 15.9047 18.3964C14.8578 18.9582 13.6881 19.2523 12.5 19.2522Z" fill="#0A1C26"/>
</svg>
