<svg width="56" height="57" viewBox="0 0 56 57" fill="none" xmlns="http://www.w3.org/2000/svg">
<g filter="url(#filter0_d_273_22223)">
<circle cx="24" cy="24.1045" r="20" fill="url(#paint0_linear_273_22223)"/>
</g>
<path d="M20.0288 33.0251L20.4016 27.3925L30.6283 18.1779C31.081 17.7651 30.535 17.5654 29.9358 17.9249L17.3124 25.9011L11.8528 24.17C10.681 23.8371 10.6677 23.0249 12.1192 22.439L33.3846 14.2364C34.3567 13.797 35.2888 14.4761 34.916 15.9675L31.294 33.0251C31.041 34.2369 30.3087 34.5298 29.2967 33.9705L23.7839 29.8959L21.134 32.4658C20.8278 32.7721 20.5748 33.0251 20.0288 33.0251Z" fill="#FBFFFF"/>
<defs>
<filter id="filter0_d_273_22223" x="0" y="0.104492" width="56" height="56" filterUnits="userSpaceOnUse" color-interpolation-filters="sRGB">
<feFlood flood-opacity="0" result="BackgroundImageFix"/>
<feColorMatrix in="SourceAlpha" type="matrix" values="0 0 0 0 0 0 0 0 0 0 0 0 0 0 0 0 0 0 127 0" result="hardAlpha"/>
<feOffset dx="4" dy="4"/>
<feGaussianBlur stdDeviation="4"/>
<feComposite in2="hardAlpha" operator="out"/>
<feColorMatrix type="matrix" values="0 0 0 0 0 0 0 0 0 0 0 0 0 0 0 0 0 0 0.1 0"/>
<feBlend mode="normal" in2="BackgroundImageFix" result="effect1_dropShadow_273_22223"/>
<feBlend mode="normal" in="SourceGraphic" in2="effect1_dropShadow_273_22223" result="shape"/>
</filter>
<linearGradient id="paint0_linear_273_22223" x1="4" y1="4.10449" x2="46.9344" y2="7.55117" gradientUnits="userSpaceOnUse">
<stop stop-color="#AF87FF"/>
<stop offset="0.9999" stop-color="#5B7FFF"/>
<stop offset="1" stop-color="#D1DBFF"/>
</linearGradient>
</defs>
</svg>
