<svg width="56" height="57" viewBox="0 0 56 57" fill="none" xmlns="http://www.w3.org/2000/svg">
<g filter="url(#filter0_d_273_22055)">
<circle cx="24" cy="24.1045" r="20" fill="url(#paint0_linear_273_22055)"/>
</g>
<path d="M34.453 18.0585C34.6179 17.509 34.453 17.1045 33.66 17.1045H31.0358C30.3675 17.1045 30.06 17.4518 29.8952 17.8387C29.8952 17.8387 28.5586 21.0526 26.6695 23.1366C26.0591 23.7389 25.7784 23.9323 25.4443 23.9323C25.2794 23.9323 25.0255 23.7389 25.0255 23.1893V18.0585C25.0255 17.3991 24.8384 17.1045 24.2859 17.1045H20.1602C19.7414 17.1045 19.4919 17.4123 19.4919 17.698C19.4919 18.3223 20.4365 18.4674 20.5345 20.226V24.0423C20.5345 24.8776 20.383 25.0315 20.0488 25.0315C19.1578 25.0315 16.9925 21.8044 15.7093 18.1113C15.4509 17.3947 15.197 17.1045 14.5242 17.1045H11.9C11.1515 17.1045 11 17.4518 11 17.8387C11 18.5246 11.8911 21.9319 15.1479 26.434C17.3177 29.5072 20.3741 31.1735 23.1542 31.1735C24.825 31.1735 25.0299 30.8041 25.0299 30.1666C25.0299 27.2298 24.8785 26.9528 25.7161 26.9528C26.1037 26.9528 26.772 27.1462 28.3314 28.6279C30.1135 30.3865 30.4076 31.1735 31.4056 31.1735H34.0298C34.7783 31.1735 35.157 30.8041 34.9387 30.0743C34.4397 28.5399 31.0669 25.3832 30.9155 25.1722C30.5279 24.6798 30.6392 24.4599 30.9155 24.0203C30.9199 24.0159 34.1233 19.5666 34.453 18.0585Z" fill="#FBFFFF"/>
<defs>
<filter id="filter0_d_273_22055" x="0" y="0.104492" width="56" height="56" filterUnits="userSpaceOnUse" color-interpolation-filters="sRGB">
<feFlood flood-opacity="0" result="BackgroundImageFix"/>
<feColorMatrix in="SourceAlpha" type="matrix" values="0 0 0 0 0 0 0 0 0 0 0 0 0 0 0 0 0 0 127 0" result="hardAlpha"/>
<feOffset dx="4" dy="4"/>
<feGaussianBlur stdDeviation="4"/>
<feComposite in2="hardAlpha" operator="out"/>
<feColorMatrix type="matrix" values="0 0 0 0 0 0 0 0 0 0 0 0 0 0 0 0 0 0 0.1 0"/>
<feBlend mode="normal" in2="BackgroundImageFix" result="effect1_dropShadow_273_22055"/>
<feBlend mode="normal" in="SourceGraphic" in2="effect1_dropShadow_273_22055" result="shape"/>
</filter>
<linearGradient id="paint0_linear_273_22055" x1="4" y1="4.10449" x2="46.9344" y2="7.55117" gradientUnits="userSpaceOnUse">
<stop stop-color="#AF87FF"/>
<stop offset="0.9999" stop-color="#5B7FFF"/>
<stop offset="1" stop-color="#D1DBFF"/>
</linearGradient>
</defs>
</svg>
