<svg width="64" height="64" viewBox="0 0 64 64" fill="none" xmlns="http://www.w3.org/2000/svg">
<path d="M64 32C64 49.6731 49.6731 64 32 64C14.3269 64 0 49.6731 0 32C0 14.3269 14.3269 0 32 0C49.6731 0 64 14.3269 64 32Z" fill="url(#paint0_linear_795_2035)"/>
<path d="M40.6667 29.2785V16.3998C40.6667 15.4465 39.8867 14.6665 38.9333 14.6665H25.0667C24.1133 14.6665 23.3333 15.4465 23.3333 16.3998V29.2785C23.3333 29.8851 23.6453 30.4571 24.1827 30.7691L31.428 35.1198L29.712 39.1758L25.864 39.5051C25.0667 39.5745 24.7547 40.5278 25.344 41.0305L28.2733 43.5611L27.3893 47.3398C27.216 48.0851 28.0307 48.6745 28.6893 48.2758L32 46.2651L35.3107 48.2585C35.9693 48.6571 36.784 48.0678 36.6107 47.3225L35.7267 43.5438L38.656 41.0131C39.228 40.5105 38.9333 39.5571 38.1533 39.4878L34.3053 39.1585L32.5893 35.1025L39.8347 30.7518C40.3547 30.4571 40.6667 29.9025 40.6667 29.2785ZM33.7333 32.3985L32 33.4385L30.2667 32.3985V16.3998H33.7333V32.3985Z" fill="#FBFFFF"/>
<defs>
<linearGradient id="paint0_linear_795_2035" x1="0" y1="0" x2="68.6951" y2="5.51469" gradientUnits="userSpaceOnUse">
<stop stop-color="#AF87FF"/>
<stop offset="0.9999" stop-color="#5B7FFF"/>
<stop offset="1" stop-color="#D1DBFF"/>
</linearGradient>
</defs>
</svg>
