<svg width="64" height="64" viewBox="0 0 64 64" fill="none" xmlns="http://www.w3.org/2000/svg">
<path d="M64 32C64 49.6731 49.6731 64 32 64C14.3269 64 0 49.6731 0 32C0 14.3269 14.3269 0 32 0C49.6731 0 64 14.3269 64 32Z" fill="url(#paint0_linear_795_2042)"/>
<path d="M31.6533 30.0933C27.7187 29.0707 26.4533 28.0133 26.4533 26.3667C26.4533 24.4773 28.204 23.16 31.1333 23.16C33.5947 23.16 34.8253 24.096 35.276 25.5867C35.484 26.28 36.056 26.8 36.784 26.8H37.304C38.448 26.8 39.2627 25.6733 38.864 24.5987C38.136 22.5533 36.4373 20.8547 33.7333 20.196V19C33.7333 17.5613 32.572 16.4 31.1333 16.4C29.6947 16.4 28.5333 17.5613 28.5333 19V20.144C25.1707 20.872 22.4667 23.056 22.4667 26.4013C22.4667 30.4053 25.7773 32.3987 30.6133 33.56C34.9467 34.6 35.8133 36.1253 35.8133 37.7373C35.8133 38.9333 34.964 40.84 31.1333 40.84C28.2733 40.84 26.8 39.8173 26.228 38.3613C25.968 37.6853 25.3787 37.2 24.668 37.2H24.1827C23.0213 37.2 22.2067 38.3787 22.64 39.4533C23.628 41.8627 25.9333 43.284 28.5333 43.8387V45C28.5333 46.4387 29.6947 47.6 31.1333 47.6C32.572 47.6 33.7333 46.4387 33.7333 45V43.8733C37.1133 43.232 39.8 41.2733 39.8 37.72C39.8 32.7973 35.588 31.116 31.6533 30.0933Z" fill="#FBFFFF"/>
<defs>
<linearGradient id="paint0_linear_795_2042" x1="0" y1="0" x2="68.6951" y2="5.51469" gradientUnits="userSpaceOnUse">
<stop stop-color="#AF87FF"/>
<stop offset="0.9999" stop-color="#5B7FFF"/>
<stop offset="1" stop-color="#D1DBFF"/>
</linearGradient>
</defs>
</svg>
