<svg width="64" height="64" viewBox="0 0 64 64" fill="none" xmlns="http://www.w3.org/2000/svg">
<path d="M64 32C64 49.6731 49.6731 64 32 64C14.3269 64 0 49.6731 0 32C0 14.3269 14.3269 0 32 0C49.6731 0 64 14.3269 64 32Z" fill="url(#paint0_linear_795_694)"/>
<path d="M25.0667 14.7254C23.16 14.7254 21.6 16.3119 21.6 18.2508V23.8386C21.6 24.7729 21.964 25.6719 22.6227 26.3417L28.5333 32.3525L22.6053 38.381C21.964 39.0508 21.6 39.9498 21.6 40.8841V46.4542C21.6 48.3932 23.16 49.9797 25.0667 49.9797H38.9333C40.84 49.9797 42.4 48.3932 42.4 46.4542V40.8841C42.4 39.9498 42.036 39.0508 41.3947 38.3986L35.4667 32.3525L41.3773 26.3593C42.036 25.6895 42.4 24.7905 42.4 23.8563V18.2508C42.4 16.3119 40.84 14.7254 38.9333 14.7254H25.0667ZM38.9333 40.2847V44.6915C38.9333 45.661 38.1533 46.4542 37.2 46.4542H26.8C25.8467 46.4542 25.0667 45.661 25.0667 44.6915V40.2847L32 33.2339L38.9333 40.2847ZM32 31.4712L25.0667 24.4203V20.0136C25.0667 19.0441 25.8467 18.2508 26.8 18.2508H37.2C38.1533 18.2508 38.9333 19.0441 38.9333 20.0136V24.4203L32 31.4712Z" fill="#FBFFFF"/>
<defs>
<linearGradient id="paint0_linear_795_694" x1="0" y1="0" x2="68.6951" y2="5.51469" gradientUnits="userSpaceOnUse">
<stop stop-color="#AF87FF"/>
<stop offset="0.9999" stop-color="#5B7FFF"/>
<stop offset="1" stop-color="#D1DBFF"/>
</linearGradient>
</defs>
</svg>
