<svg width="64" height="64" viewBox="0 0 64 64" fill="none" xmlns="http://www.w3.org/2000/svg">
<path d="M64 32C64 49.6731 49.6731 64 32 64C14.3269 64 0 49.6731 0 32C0 14.3269 14.3269 0 32 0C49.6731 0 64 14.3269 64 32Z" fill="url(#paint0_linear_795_1928)"/>
<path d="M30.596 13.5573L18.4627 18.948C17.2147 19.5027 16.4 20.7507 16.4 22.12V30.2667C16.4 39.8867 23.056 48.8827 32 51.0667C40.944 48.8827 47.6 39.8867 47.6 30.2667V22.12C47.6 20.7507 46.7853 19.5027 45.5373 18.948L33.404 13.5573C32.52 13.1587 31.48 13.1587 30.596 13.5573ZM27.3027 39.436L22.8133 34.9467C22.1373 34.2707 22.1373 33.1787 22.8133 32.5027C23.4893 31.8267 24.5813 31.8267 25.2573 32.5027L28.5333 35.7613L38.7253 25.5693C39.4013 24.8933 40.4933 24.8933 41.1693 25.5693C41.8453 26.2453 41.8453 27.3373 41.1693 28.0133L29.7467 39.436C29.088 40.112 27.9787 40.112 27.3027 39.436Z" fill="#FBFFFF"/>
<defs>
<linearGradient id="paint0_linear_795_1928" x1="0" y1="0" x2="68.6951" y2="5.51469" gradientUnits="userSpaceOnUse">
<stop stop-color="#AF87FF"/>
<stop offset="0.9999" stop-color="#5B7FFF"/>
<stop offset="1" stop-color="#D1DBFF"/>
</linearGradient>
</defs>
</svg>
