<svg width="97" height="96" viewBox="0 0 97 96" fill="none" xmlns="http://www.w3.org/2000/svg">
<g filter="url(#filter0_d_447_9088)">
<circle cx="44.5001" cy="44" r="40" fill="url(#paint0_linear_447_9088)"/>
</g>
<path d="M44.5 22.3333C32.54 22.3333 22.8333 32.04 22.8333 44C22.8333 55.96 32.54 65.6666 44.5 65.6666C56.46 65.6666 66.1667 55.96 66.1667 44C66.1667 32.04 56.46 22.3333 44.5 22.3333ZM44.5 28.8333C48.0967 28.8333 51 31.7366 51 35.3333C51 38.93 48.0967 41.8333 44.5 41.8333C40.9033 41.8333 38 38.93 38 35.3333C38 31.7366 40.9033 28.8333 44.5 28.8333ZM44.5 59.6C39.0833 59.6 34.295 56.8266 31.5 52.6233C31.565 48.3116 40.1667 45.95 44.5 45.95C48.8117 45.95 57.435 48.3116 57.5 52.6233C54.705 56.8266 49.9167 59.6 44.5 59.6Z" fill="white"/>
<defs>
<filter id="filter0_d_447_9088" x="0.500122" y="0" width="96" height="96" filterUnits="userSpaceOnUse" color-interpolation-filters="sRGB">
<feFlood flood-opacity="0" result="BackgroundImageFix"/>
<feColorMatrix in="SourceAlpha" type="matrix" values="0 0 0 0 0 0 0 0 0 0 0 0 0 0 0 0 0 0 127 0" result="hardAlpha"/>
<feOffset dx="4" dy="4"/>
<feGaussianBlur stdDeviation="4"/>
<feComposite in2="hardAlpha" operator="out"/>
<feColorMatrix type="matrix" values="0 0 0 0 0 0 0 0 0 0 0 0 0 0 0 0 0 0 0.05 0"/>
<feBlend mode="normal" in2="BackgroundImageFix" result="effect1_dropShadow_447_9088"/>
<feBlend mode="normal" in="SourceGraphic" in2="effect1_dropShadow_447_9088" result="shape"/>
</filter>
<linearGradient id="paint0_linear_447_9088" x1="4.50012" y1="4" x2="90.369" y2="10.8934" gradientUnits="userSpaceOnUse">
<stop stop-color="#AF87FF"/>
<stop offset="0.9999" stop-color="#5B7FFF"/>
<stop offset="1" stop-color="#D1DBFF"/>
</linearGradient>
</defs>
</svg>
