<svg width="107" height="108" viewBox="0 0 107 108" fill="none" xmlns="http://www.w3.org/2000/svg">
<g filter="url(#filter0_d_413_11961)">
<ellipse cx="49.5" cy="49.6681" rx="45" ry="45.3842" fill="url(#paint0_linear_413_11961)"/>
</g>
<path d="M63.6333 34.8C62.5933 33.76 60.9133 33.76 59.8733 34.8L44.8333 49.84L48.5933 53.6L63.6333 38.5333C64.6467 37.52 64.6467 35.8133 63.6333 34.8ZM74.94 34.7733L48.5933 61.12L39.3133 51.8667C38.2733 50.8267 36.5933 50.8267 35.5533 51.8667C34.5133 52.9067 34.5133 54.5867 35.5533 55.6267L46.7 66.7733C47.74 67.8133 49.42 67.8133 50.46 66.7733L78.7 38.56C79.74 37.52 79.74 35.84 78.7 34.8H78.6733C77.66 33.7333 75.98 33.7333 74.94 34.7733ZM20.4867 55.6533L31.6333 66.8C32.6733 67.84 34.3533 67.84 35.3933 66.8L37.26 64.9333L24.2467 51.8667C23.2067 50.8267 21.5267 50.8267 20.4867 51.8667C19.4467 52.9067 19.4467 54.6133 20.4867 55.6533Z" fill="#FBFFFF"/>
<defs>
<filter id="filter0_d_413_11961" x="0.5" y="0.283936" width="106" height="106.768" filterUnits="userSpaceOnUse" color-interpolation-filters="sRGB">
<feFlood flood-opacity="0" result="BackgroundImageFix"/>
<feColorMatrix in="SourceAlpha" type="matrix" values="0 0 0 0 0 0 0 0 0 0 0 0 0 0 0 0 0 0 127 0" result="hardAlpha"/>
<feOffset dx="4" dy="4"/>
<feGaussianBlur stdDeviation="4"/>
<feComposite in2="hardAlpha" operator="out"/>
<feColorMatrix type="matrix" values="0 0 0 0 0 0 0 0 0 0 0 0 0 0 0 0 0 0 0.1 0"/>
<feBlend mode="normal" in2="BackgroundImageFix" result="effect1_dropShadow_413_11961"/>
<feBlend mode="normal" in="SourceGraphic" in2="effect1_dropShadow_413_11961" result="shape"/>
</filter>
<linearGradient id="paint0_linear_413_11961" x1="4.5" y1="4.28394" x2="101.113" y2="11.9742" gradientUnits="userSpaceOnUse">
<stop stop-color="#AF87FF"/>
<stop offset="0.9999" stop-color="#5B7FFF"/>
<stop offset="1" stop-color="#D1DBFF"/>
</linearGradient>
</defs>
</svg>
