<svg width="107" height="108" viewBox="0 0 107 108" fill="none" xmlns="http://www.w3.org/2000/svg">
<g filter="url(#filter0_d_413_12072)">
<ellipse cx="49.5" cy="49.6681" rx="45" ry="45.3842" fill="url(#paint0_linear_413_12072)"/>
</g>
<path d="M47.9 20.72C35.1533 21.5467 25.5 32.72 25.5 45.4933V63.3333C25.5 67.76 29.0733 71.3333 33.5 71.3333H36.1667C39.1 71.3333 41.5 68.9333 41.5 66V55.3333C41.5 52.4 39.1 50 36.1667 50H30.8333V45.44C30.8333 35.2 38.7267 26.2933 48.94 26C59.5267 25.7067 68.1667 34.16 68.1667 44.6667V50H62.8333C59.9 50 57.5 52.4 57.5 55.3333V66C57.5 68.9333 59.9 71.3333 62.8333 71.3333H68.1667V74H52.1667C50.7 74 49.5 75.2 49.5 76.6667C49.5 78.1333 50.7 79.3333 52.1667 79.3333H65.5C69.9267 79.3333 73.5 75.76 73.5 71.3333V44.6667C73.5 30.88 61.8733 19.8133 47.9 20.72Z" fill="#FBFFFF"/>
<defs>
<filter id="filter0_d_413_12072" x="0.5" y="0.283936" width="106" height="106.768" filterUnits="userSpaceOnUse" color-interpolation-filters="sRGB">
<feFlood flood-opacity="0" result="BackgroundImageFix"/>
<feColorMatrix in="SourceAlpha" type="matrix" values="0 0 0 0 0 0 0 0 0 0 0 0 0 0 0 0 0 0 127 0" result="hardAlpha"/>
<feOffset dx="4" dy="4"/>
<feGaussianBlur stdDeviation="4"/>
<feComposite in2="hardAlpha" operator="out"/>
<feColorMatrix type="matrix" values="0 0 0 0 0 0 0 0 0 0 0 0 0 0 0 0 0 0 0.1 0"/>
<feBlend mode="normal" in2="BackgroundImageFix" result="effect1_dropShadow_413_12072"/>
<feBlend mode="normal" in="SourceGraphic" in2="effect1_dropShadow_413_12072" result="shape"/>
</filter>
<linearGradient id="paint0_linear_413_12072" x1="4.5" y1="4.28394" x2="101.113" y2="11.9742" gradientUnits="userSpaceOnUse">
<stop stop-color="#AF87FF"/>
<stop offset="0.9999" stop-color="#5B7FFF"/>
<stop offset="1" stop-color="#D1DBFF"/>
</linearGradient>
</defs>
</svg>
