<svg width="80" height="80" viewBox="0 0 80 80" fill="none" xmlns="http://www.w3.org/2000/svg">
<path d="M80 40C80 62.0914 62.0914 80 40 80C17.9086 80 0 62.0914 0 40C0 17.9086 17.9086 0 40 0C62.0914 0 80 17.9086 80 40Z" fill="url(#paint0_linear_795_3378)"/>
<path d="M57.3333 20.5H27C24.6167 20.5 22.6667 22.45 22.6667 24.8333V42.1667C22.6667 46.955 26.545 50.8333 31.3333 50.8333H44.3333C49.1217 50.8333 53 46.955 53 42.1667V35.6667H57.3333C59.7383 35.6667 61.6667 33.7167 61.6667 31.3333V24.8333C61.6667 22.45 59.7167 20.5 57.3333 20.5ZM57.3333 31.3333H53V24.8333H57.3333V31.3333ZM24.8333 55.1667H55.1667C56.3583 55.1667 57.3333 56.1417 57.3333 57.3333C57.3333 58.525 56.3583 59.5 55.1667 59.5H24.8333C23.6417 59.5 22.6667 58.525 22.6667 57.3333C22.6667 56.1417 23.6417 55.1667 24.8333 55.1667Z" fill="#FBFFFF"/>
<defs>
<linearGradient id="paint0_linear_795_3378" x1="0" y1="0" x2="85.8688" y2="6.89336" gradientUnits="userSpaceOnUse">
<stop stop-color="#AF87FF"/>
<stop offset="0.9999" stop-color="#5B7FFF"/>
<stop offset="1" stop-color="#D1DBFF"/>
</linearGradient>
</defs>
</svg>
