<svg width="80" height="80" viewBox="0 0 80 80" fill="none" xmlns="http://www.w3.org/2000/svg">
<path d="M80 40C80 62.0914 62.0914 80 40 80C17.9086 80 0 62.0914 0 40C0 17.9086 17.9086 0 40 0C62.0914 0 80 17.9086 80 40Z" fill="url(#paint0_linear_795_3390)"/>
<path d="M18.3333 59.5H40C41.1917 59.5 42.1667 60.475 42.1667 61.6667C42.1667 62.8583 41.1917 63.8333 40 63.8333H18.3333C17.1417 63.8333 16.1667 62.8583 16.1667 61.6667C16.1667 60.475 17.1417 59.5 18.3333 59.5ZM25.3533 31.485L31.485 25.3533L59.0667 52.935C60.7567 54.625 60.7567 57.3767 59.0667 59.0667C57.3767 60.7567 54.625 60.7567 52.935 59.0667L25.3533 31.485ZM43.7483 19.2217L49.88 25.3533C51.57 27.0433 51.57 29.795 49.88 31.485L46.8033 34.5617L34.5617 22.2983L37.6167 19.2433C39.3067 17.5317 42.0583 17.5317 43.7483 19.2217ZM22.2983 34.54L34.5617 46.8033L31.5067 49.8583C29.8167 51.5483 27.065 51.5483 25.375 49.8583L19.2433 43.7267C17.5533 42.0367 17.5533 39.285 19.2433 37.595L22.2983 34.54Z" fill="#FBFFFF"/>
<defs>
<linearGradient id="paint0_linear_795_3390" x1="0" y1="0" x2="85.8688" y2="6.89336" gradientUnits="userSpaceOnUse">
<stop stop-color="#AF87FF"/>
<stop offset="0.9999" stop-color="#5B7FFF"/>
<stop offset="1" stop-color="#D1DBFF"/>
</linearGradient>
</defs>
</svg>
