<svg width="80" height="80" viewBox="0 0 80 80" fill="none" xmlns="http://www.w3.org/2000/svg">
<path d="M80 40C80 62.0914 62.0914 80 40 80C17.9086 80 0 62.0914 0 40C0 17.9086 17.9086 0 40 0C62.0914 0 80 17.9086 80 40Z" fill="url(#paint0_linear_795_3384)"/>
<path d="M24.8333 42.5567V48.645C24.8333 50.2267 25.7 51.7 27.0867 52.4583L37.92 58.3733C39.22 59.0883 40.78 59.0883 42.08 58.3733L52.9133 52.4583C54.3 51.7 55.1667 50.2267 55.1667 48.645V42.5567L42.08 49.7067C40.78 50.4217 39.22 50.4217 37.92 49.7067L24.8333 42.5567ZM37.92 21.6267L19.655 31.5933C18.16 32.4167 18.16 34.5833 19.655 35.4067L37.92 45.3733C39.22 46.0883 40.78 46.0883 42.08 45.3733L59.5 35.8617V48.6667C59.5 49.8583 60.475 50.8333 61.6667 50.8333C62.8583 50.8333 63.8333 49.8583 63.8333 48.6667V34.7783C63.8333 33.9767 63.4 33.2617 62.7067 32.8717L42.08 21.6267C40.78 20.9333 39.22 20.9333 37.92 21.6267Z" fill="#FBFFFF"/>
<defs>
<linearGradient id="paint0_linear_795_3384" x1="0" y1="0" x2="85.8688" y2="6.89336" gradientUnits="userSpaceOnUse">
<stop stop-color="#AF87FF"/>
<stop offset="0.9999" stop-color="#5B7FFF"/>
<stop offset="1" stop-color="#D1DBFF"/>
</linearGradient>
</defs>
</svg>
