<svg width="80" height="80" viewBox="0 0 80 80" fill="none" xmlns="http://www.w3.org/2000/svg">
<path d="M80 40C80 62.0914 62.0914 80 40 80C17.9086 80 0 62.0914 0 40C0 17.9086 17.9086 0 40 0C62.0914 0 80 17.9086 80 40Z" fill="url(#paint0_linear_795_3375)"/>
<path d="M56.055 30.055L45.59 19.59C44.7883 18.7883 43.6833 18.3333 42.535 18.3333H27C24.6167 18.3333 22.6667 20.2833 22.6667 22.6667V57.3333C22.6667 59.7167 24.6167 61.6667 27 61.6667H53C55.3833 61.6667 57.3333 59.7167 57.3333 57.3333V33.1317C57.3333 31.9833 56.8783 30.8783 56.055 30.055ZM44.3333 40C45.525 40 46.5 40.975 46.5 42.1667V48.6667C46.5 49.8583 45.525 50.8333 44.3333 50.8333H42.1667C42.1667 52.025 41.1917 53 40 53C38.8083 53 37.8333 52.025 37.8333 50.8333H35.6667C34.475 50.8333 33.5 49.8583 33.5 48.6667C33.5 47.475 34.475 46.5 35.6667 46.5H42.1667V44.3333H35.6667C34.475 44.3333 33.5 43.3583 33.5 42.1667V35.6667C33.5 34.475 34.475 33.5 35.6667 33.5H37.8333C37.8333 32.3083 38.8083 31.3333 40 31.3333C41.1917 31.3333 42.1667 32.3083 42.1667 33.5H44.3333C45.525 33.5 46.5 34.475 46.5 35.6667C46.5 36.8583 45.525 37.8333 44.3333 37.8333H37.8333V40H44.3333Z" fill="#FBFFFF"/>
<defs>
<linearGradient id="paint0_linear_795_3375" x1="0" y1="0" x2="85.8688" y2="6.89336" gradientUnits="userSpaceOnUse">
<stop stop-color="#AF87FF"/>
<stop offset="0.9999" stop-color="#5B7FFF"/>
<stop offset="1" stop-color="#D1DBFF"/>
</linearGradient>
</defs>
</svg>
