<svg width="80" height="80" viewBox="0 0 80 80" fill="none" xmlns="http://www.w3.org/2000/svg">
<path d="M80 40C80 62.0914 62.0914 80 40 80C17.9086 80 0 62.0914 0 40C0 17.9086 17.9086 0 40 0C62.0914 0 80 17.9086 80 40Z" fill="url(#paint0_linear_795_3381)"/>
<path d="M35.6667 48.6667V31.3333C35.6667 28.95 37.595 27 40 27H59.5V24.8333C59.5 22.45 57.55 20.5 55.1667 20.5H24.8333C22.4283 20.5 20.5 22.45 20.5 24.8333V55.1667C20.5 57.55 22.4283 59.5 24.8333 59.5H55.1667C57.55 59.5 59.5 57.55 59.5 55.1667V53H40C37.595 53 35.6667 51.05 35.6667 48.6667ZM42.1667 31.3333C40.975 31.3333 40 32.3083 40 33.5V46.5C40 47.6917 40.975 48.6667 42.1667 48.6667H61.6667V31.3333H42.1667ZM48.6667 43.25C46.8683 43.25 45.4167 41.7983 45.4167 40C45.4167 38.2017 46.8683 36.75 48.6667 36.75C50.465 36.75 51.9167 38.2017 51.9167 40C51.9167 41.7983 50.465 43.25 48.6667 43.25Z" fill="#FBFFFF"/>
<defs>
<linearGradient id="paint0_linear_795_3381" x1="0" y1="0" x2="85.8688" y2="6.89336" gradientUnits="userSpaceOnUse">
<stop stop-color="#AF87FF"/>
<stop offset="0.9999" stop-color="#5B7FFF"/>
<stop offset="1" stop-color="#D1DBFF"/>
</linearGradient>
</defs>
</svg>
