<svg width="80" height="80" viewBox="0 0 80 80" fill="none" xmlns="http://www.w3.org/2000/svg">
<path d="M80 40C80 62.0914 62.0914 80 40 80C17.9086 80 0 62.0914 0 40C0 17.9086 17.9086 0 40 0C62.0914 0 80 17.9086 80 40Z" fill="url(#paint0_linear_795_3387)"/>
<path d="M42.1667 48.6667H37.8333C36.6417 48.6667 35.6667 47.6917 35.6667 46.5H20.5217V55.1667C20.5217 57.55 22.4717 59.5 24.855 59.5H55.1667C57.55 59.5 59.5 57.55 59.5 55.1667V46.5H44.3333C44.3333 47.6917 43.3583 48.6667 42.1667 48.6667ZM57.3333 29.1667H48.6667C48.6667 24.3783 44.7883 20.5 40 20.5C35.2117 20.5 31.3333 24.3783 31.3333 29.1667H22.6667C20.2833 29.1667 18.3333 31.1167 18.3333 33.5V40C18.3333 42.405 20.2617 44.3333 22.6667 44.3333H35.6667V42.1667C35.6667 40.975 36.6417 40 37.8333 40H42.1667C43.3583 40 44.3333 40.975 44.3333 42.1667V44.3333H57.3333C59.7167 44.3333 61.6667 42.3833 61.6667 40V33.5C61.6667 31.1167 59.7167 29.1667 57.3333 29.1667ZM35.6667 29.1667C35.6667 26.7833 37.6167 24.8333 40 24.8333C42.3833 24.8333 44.3333 26.7833 44.3333 29.1667H35.645H35.6667Z" fill="#FBFFFF"/>
<defs>
<linearGradient id="paint0_linear_795_3387" x1="0" y1="0" x2="85.8688" y2="6.89336" gradientUnits="userSpaceOnUse">
<stop stop-color="#AF87FF"/>
<stop offset="0.9999" stop-color="#5B7FFF"/>
<stop offset="1" stop-color="#D1DBFF"/>
</linearGradient>
</defs>
</svg>
