<svg width="118" height="108" viewBox="0 0 118 108" fill="none" xmlns="http://www.w3.org/2000/svg">
<path fill-rule="evenodd" clip-rule="evenodd" d="M103.185 70.1773C104.885 65.2692 105.81 59.9935 105.81 54.5C105.81 28.2665 84.7278 7 58.7218 7C32.7158 7 11.6338 28.2665 11.6338 54.5C11.6338 59.9935 12.5583 65.2692 14.2589 70.1773H38.6336C37.763 68.5028 37.271 66.5999 37.271 64.582C37.271 57.8734 42.7095 52.435 49.4182 52.435C52.0448 52.435 54.4766 53.2686 56.4636 54.6857C53.3754 56.8881 51.3618 60.4999 51.3618 64.582C51.3618 66.5999 51.8538 68.5028 52.7244 70.1773H57.8262C56.9556 68.5028 56.4636 66.5999 56.4636 64.582C56.4636 61.9555 57.2972 59.5237 58.7143 57.5368C60.9168 60.6249 64.5287 62.6385 68.6108 62.6385C72.693 62.6385 76.3049 60.6249 78.5074 57.5368C79.9245 59.5237 80.7581 61.9555 80.7581 64.582C80.7581 66.5999 80.2661 68.5028 79.3955 70.1773H103.185ZM66.6673 44.418C66.6673 40.3359 64.6536 36.724 61.5654 34.5216C63.5524 33.1045 65.9843 32.2709 68.6108 32.2709C75.3196 32.2709 80.7581 37.7093 80.7581 44.418C80.7581 51.1266 75.3196 56.565 68.6108 56.565C65.9843 56.565 63.5524 55.7314 61.5654 54.3143C64.6536 52.1119 66.6673 48.5001 66.6673 44.418ZM59.1933 51.5847C56.9908 48.4966 53.3789 46.483 49.2967 46.483C45.2145 46.483 41.6027 48.4966 39.4002 51.5847C37.9831 49.5977 37.1495 47.1659 37.1495 44.5394C37.1495 37.8308 42.588 32.3924 49.2967 32.3924C56.0055 32.3924 61.444 37.8308 61.444 44.5394C61.444 47.1659 60.6103 49.5977 59.1933 51.5847Z" fill="url(#paint0_linear_413_9377)"/>
<path d="M90.7025 89.3645H26.7412C35.139 97.2068 46.3755 102 58.7218 102C71.0681 102 82.3047 97.2068 90.7025 89.3645Z" fill="url(#paint1_linear_413_9377)"/>
<path d="M0 75.8859H0.737562V82.5669H3.55326V83.2808H0V75.8859Z" fill="url(#paint2_linear_413_9377)"/>
<path d="M9.16471 81.466L9.75277 81.7777C9.56007 82.1597 9.33747 82.4681 9.08497 82.7027C8.83247 82.9373 8.54841 83.1166 8.23279 83.2406C7.91717 83.3612 7.56001 83.4215 7.16133 83.4215C6.27759 83.4215 5.58654 83.13 5.08818 82.5468C4.58983 81.9603 4.34065 81.2984 4.34065 80.5611C4.34065 79.8674 4.55162 79.249 4.97356 78.7061C5.50846 78.0157 6.22443 77.6705 7.12146 77.6705C8.04508 77.6705 8.78264 78.0241 9.33415 78.7312C9.72619 79.2306 9.92553 79.854 9.93217 80.6013H5.05828C5.07157 81.2381 5.27257 81.7609 5.66129 82.1698C6.05 82.5753 6.53008 82.7781 7.10153 82.7781C7.37728 82.7781 7.64473 82.7295 7.90388 82.6323C8.16634 82.5351 8.38894 82.4061 8.57167 82.2452C8.7544 82.0843 8.95208 81.8246 9.16471 81.466ZM9.16471 79.993C9.07168 79.6177 8.93547 79.3177 8.75606 79.0932C8.57998 78.8686 8.34575 78.6877 8.05338 78.5503C7.76102 78.4128 7.4537 78.3441 7.13143 78.3441C6.59985 78.3441 6.14303 78.5167 5.76096 78.8619C5.48188 79.1133 5.27091 79.4903 5.12805 79.993H9.16471Z" fill="url(#paint3_linear_413_9377)"/>
<path d="M15.9074 77.8113H16.6101V82.1698C16.6101 82.9373 16.5437 83.4986 16.4108 83.8539C16.228 84.3566 15.9107 84.7437 15.4589 85.0152C15.0071 85.2866 14.4639 85.4223 13.8293 85.4223C13.3642 85.4223 12.9455 85.3553 12.5734 85.2213C12.2047 85.0906 11.904 84.9129 11.6714 84.6884C11.4389 84.4672 11.2246 84.1421 11.0286 83.7131H11.786C11.992 84.0751 12.2578 84.3432 12.5834 84.5175C12.909 84.6917 13.3127 84.7789 13.7944 84.7789C14.2695 84.7789 14.6698 84.6884 14.9954 84.5074C15.3244 84.3298 15.5586 84.1052 15.6981 83.8338C15.8377 83.5623 15.9074 83.1249 15.9074 82.5217V82.2402C15.645 82.5753 15.3244 82.8334 14.9456 83.0144C14.5669 83.192 14.1649 83.2808 13.7396 83.2808C13.2412 83.2808 12.7728 83.1568 12.3342 82.9088C11.8957 82.6574 11.5568 82.3206 11.3176 81.8983C11.0784 81.4761 10.9588 81.0119 10.9588 80.5058C10.9588 79.9997 11.0834 79.5289 11.3325 79.0932C11.5817 78.6542 11.9256 78.3073 12.3641 78.0526C12.806 77.7979 13.2711 77.6705 13.7595 77.6705C14.1649 77.6705 14.5419 77.756 14.8908 77.9269C15.243 78.0945 15.5818 78.3726 15.9074 78.7614V77.8113ZM13.8492 78.3492C13.4539 78.3492 13.0867 78.4464 12.7479 78.6407C12.409 78.8318 12.1432 79.0982 11.9505 79.4401C11.7578 79.7785 11.6615 80.1455 11.6615 80.541C11.6615 81.1409 11.8608 81.6369 12.2595 82.029C12.6582 82.4212 13.1748 82.6172 13.8094 82.6172C14.4506 82.6172 14.9655 82.4228 15.3543 82.0341C15.7463 81.6453 15.9423 81.1342 15.9423 80.5008C15.9423 80.0886 15.8526 79.7216 15.6732 79.3998C15.4938 79.0748 15.2396 78.8184 14.9107 78.6307C14.5818 78.443 14.228 78.3492 13.8492 78.3492Z" fill="url(#paint4_linear_413_9377)"/>
<path d="M23.5073 77.8113V83.2808H22.8196V82.3407C22.5272 82.6993 22.1983 82.9691 21.8328 83.1501C21.4707 83.3311 21.0737 83.4215 20.6418 83.4215C19.8743 83.4215 19.2181 83.1417 18.6733 82.582C18.1317 82.019 17.861 81.3353 17.861 80.5309C17.861 79.7434 18.1351 79.0697 18.6833 78.51C19.2314 77.9504 19.8909 77.6705 20.6617 77.6705C21.1069 77.6705 21.5089 77.766 21.8677 77.9571C22.2299 78.1481 22.5471 78.4346 22.8196 78.8167V77.8113H23.5073ZM20.7165 78.3492C20.3278 78.3492 19.969 78.4464 19.6401 78.6407C19.3112 78.8318 19.0487 79.1016 18.8527 79.4501C18.66 79.7987 18.5636 80.1673 18.5636 80.5561C18.5636 80.9415 18.6617 81.3102 18.8577 81.662C19.0537 82.014 19.3162 82.2888 19.6451 82.4865C19.9773 82.6809 20.3328 82.7781 20.7115 82.7781C21.0936 82.7781 21.4558 82.6809 21.798 82.4865C22.1402 82.2921 22.4026 82.029 22.5854 81.6972C22.7714 81.3654 22.8644 80.9918 22.8644 80.5762C22.8644 79.9428 22.6568 79.4132 22.2415 78.9876C21.8295 78.562 21.3212 78.3492 20.7165 78.3492Z" fill="url(#paint5_linear_413_9377)"/>
<path d="M24.9774 75.6999H25.6751V83.2808H24.9774V75.6999Z" fill="url(#paint6_linear_413_9377)"/>
<path d="M30.0756 75.8859H34.2767V76.6148H30.8082V78.9273H34.2468V79.6512H30.8082V82.5519H34.2468V83.2808H30.0756V75.8859Z" fill="url(#paint7_linear_413_9377)"/>
<path d="M40.84 75.6999V83.2808H40.1523V82.3407C39.8599 82.6993 39.531 82.9691 39.1656 83.1501C38.8034 83.3311 38.4064 83.4215 37.9745 83.4215C37.207 83.4215 36.5509 83.1417 36.006 82.582C35.4645 82.019 35.1937 81.3353 35.1937 80.5309C35.1937 79.7434 35.4678 79.0697 36.016 78.51C36.5642 77.9504 37.2236 77.6705 37.9944 77.6705C38.4396 77.6705 38.8416 77.766 39.2004 77.9571C39.5626 78.1481 39.8799 78.4346 40.1523 78.8167V75.6999H40.84ZM38.0492 78.3492C37.6605 78.3492 37.3017 78.4464 36.9728 78.6407C36.6439 78.8318 36.3814 79.1016 36.1854 79.4501C35.9927 79.7987 35.8964 80.1673 35.8964 80.5561C35.8964 80.9415 35.9944 81.3102 36.1904 81.662C36.3864 82.014 36.6489 82.2888 36.9778 82.4865C37.31 82.6809 37.6655 82.7781 38.0443 82.7781C38.4263 82.7781 38.7885 82.6809 39.1307 82.4865C39.4729 82.2921 39.7353 82.029 39.9181 81.6972C40.1041 81.3654 40.1971 80.9918 40.1971 80.5762C40.1971 79.9428 39.9895 79.4132 39.5742 78.9876C39.1622 78.562 38.6539 78.3492 38.0492 78.3492Z" fill="url(#paint8_linear_413_9377)"/>
<path d="M41.8118 76.6048V75.8859H45.8335V76.6048H44.1989V83.2808H43.4514V76.6048H41.8118Z" fill="url(#paint9_linear_413_9377)"/>
<path d="M51.3353 81.466L51.9234 81.7777C51.7307 82.1597 51.5081 82.4681 51.2556 82.7027C51.0031 82.9373 50.719 83.1166 50.4034 83.2406C50.0878 83.3612 49.7306 83.4215 49.332 83.4215C48.4482 83.4215 47.7572 83.13 47.2588 82.5468C46.7605 81.9603 46.5113 81.2984 46.5113 80.5611C46.5113 79.8674 46.7222 79.249 47.1442 78.7061C47.6791 78.0157 48.3951 77.6705 49.2921 77.6705C50.2157 77.6705 50.9533 78.0241 51.5048 78.7312C51.8968 79.2306 52.0962 79.854 52.1028 80.6013H47.2289C47.2422 81.2381 47.4432 81.7609 47.8319 82.1698C48.2206 82.5753 48.7007 82.7781 49.2722 82.7781C49.5479 82.7781 49.8154 82.7295 50.0745 82.6323C50.337 82.5351 50.5596 82.4061 50.7423 82.2452C50.925 82.0843 51.1227 81.8246 51.3353 81.466ZM51.3353 79.993C51.2423 79.6177 51.1061 79.3177 50.9267 79.0932C50.7506 78.8686 50.5164 78.6877 50.224 78.5503C49.9316 78.4128 49.6243 78.3441 49.3021 78.3441C48.7705 78.3441 48.3137 78.5167 47.9316 78.8619C47.6525 79.1133 47.4415 79.4903 47.2987 79.993H51.3353Z" fill="url(#paint10_linear_413_9377)"/>
<path d="M58.6711 78.9474L58.1179 79.2943C57.6395 78.6542 56.9867 78.3341 56.1594 78.3341C55.4982 78.3341 54.9484 78.5486 54.5098 78.9776C54.0746 79.4065 53.857 79.9277 53.857 80.541C53.857 80.9398 53.9567 81.3152 54.156 81.6671C54.3587 82.019 54.6344 82.2921 54.9833 82.4865C55.3354 82.6809 55.7291 82.7781 56.1644 82.7781C56.9617 82.7781 57.6129 82.458 58.1179 81.8179L58.6711 82.1849C58.4119 82.577 58.0631 82.882 57.6245 83.0998C57.1893 83.3143 56.6926 83.4215 56.1345 83.4215C55.2773 83.4215 54.5663 83.1467 54.0015 82.5971C53.4367 82.0475 53.1543 81.3789 53.1543 80.5913C53.1543 80.0617 53.2856 79.5708 53.548 79.1183C53.8138 78.6625 54.1776 78.3073 54.6394 78.0526C55.1012 77.7979 55.6178 77.6705 56.1893 77.6705C56.5481 77.6705 56.8936 77.7258 57.2259 77.8364C57.5614 77.947 57.8455 78.0911 58.078 78.2687C58.3106 78.4464 58.5083 78.6726 58.6711 78.9474Z" fill="url(#paint11_linear_413_9377)"/>
<path d="M60.0166 75.6999H60.7143V78.7916C60.9967 78.4162 61.3074 78.1364 61.6463 77.952C61.9851 77.7644 62.3523 77.6705 62.7476 77.6705C63.1529 77.6705 63.5118 77.7744 63.8241 77.9822C64.1397 78.19 64.3722 78.4698 64.5218 78.8217C64.6713 79.1703 64.746 79.7182 64.746 80.4656V83.2808H64.0483V80.6717C64.0483 80.0416 64.0234 79.621 63.9736 79.4099C63.8872 79.0479 63.7294 78.7765 63.5001 78.5955C63.2742 78.4112 62.9769 78.319 62.6081 78.319C62.1861 78.319 61.8074 78.4598 61.4718 78.7413C61.1396 79.0228 60.9203 79.3714 60.814 79.7869C60.7476 80.055 60.7143 80.5511 60.7143 81.275V83.2808H60.0166V75.6999Z" fill="url(#paint12_linear_413_9377)"/>
<path d="M72.1864 75.8859L75.6051 83.2808H74.8177L73.6665 80.8477H70.507L69.3608 83.2808H68.5435L72.007 75.8859H72.1864ZM72.0967 77.4543L70.8359 80.1338H73.3426L72.0967 77.4543Z" fill="url(#paint13_linear_413_9377)"/>
<path d="M81.8943 78.9474L81.3412 79.2943C80.8627 78.6542 80.2099 78.3341 79.3826 78.3341C78.7215 78.3341 78.1716 78.5486 77.7331 78.9776C77.2979 79.4065 77.0802 79.9277 77.0802 80.541C77.0802 80.9398 77.1799 81.3152 77.3793 81.6671C77.5819 82.019 77.8577 82.2921 78.2065 82.4865C78.5587 82.6809 78.9524 82.7781 79.3876 82.7781C80.185 82.7781 80.8362 82.458 81.3412 81.8179L81.8943 82.1849C81.6352 82.577 81.2863 82.882 80.8478 83.0998C80.4126 83.3143 79.9159 83.4215 79.3577 83.4215C78.5005 83.4215 77.7896 83.1467 77.2248 82.5971C76.66 82.0475 76.3776 81.3789 76.3776 80.5913C76.3776 80.0617 76.5088 79.5708 76.7713 79.1183C77.0371 78.6625 77.4008 78.3073 77.8627 78.0526C78.3245 77.7979 78.8411 77.6705 79.4125 77.6705C79.7713 77.6705 80.1169 77.7258 80.4491 77.8364C80.7847 77.947 81.0687 78.0911 81.3013 78.2687C81.5339 78.4464 81.7315 78.6726 81.8943 78.9474Z" fill="url(#paint14_linear_413_9377)"/>
<path d="M88.642 77.8113V83.2808H87.9543V82.3407C87.6619 82.6993 87.333 82.9691 86.9676 83.1501C86.6054 83.3311 86.2084 83.4215 85.7765 83.4215C85.009 83.4215 84.3529 83.1417 83.808 82.582C83.2665 82.019 82.9957 81.3353 82.9957 80.5309C82.9957 79.7434 83.2698 79.0697 83.818 78.51C84.3662 77.9504 85.0257 77.6705 85.7964 77.6705C86.2416 77.6705 86.6436 77.766 87.0024 77.9571C87.3646 78.1481 87.6819 78.4346 87.9543 78.8167V77.8113H88.642ZM85.8513 78.3492C85.4625 78.3492 85.1037 78.4464 84.7748 78.6407C84.4459 78.8318 84.1834 79.1016 83.9874 79.4501C83.7947 79.7987 83.6984 80.1673 83.6984 80.5561C83.6984 80.9415 83.7964 81.3102 83.9924 81.662C84.1884 82.014 84.4509 82.2888 84.7798 82.4865C85.112 82.6809 85.4675 82.7781 85.8463 82.7781C86.2283 82.7781 86.5905 82.6809 86.9327 82.4865C87.2749 82.2921 87.5373 82.029 87.7201 81.6972C87.9061 81.3654 87.9992 80.9918 87.9992 80.5762C87.9992 79.9428 87.7915 79.4132 87.3762 78.9876C86.9642 78.562 86.4559 78.3492 85.8513 78.3492Z" fill="url(#paint15_linear_413_9377)"/>
<path d="M95.6289 75.6999V83.2808H94.9412V82.3407C94.6488 82.6993 94.3199 82.9691 93.9545 83.1501C93.5923 83.3311 93.1953 83.4215 92.7634 83.4215C91.9959 83.4215 91.3398 83.1417 90.7949 82.582C90.2534 82.019 89.9826 81.3353 89.9826 80.5309C89.9826 79.7434 90.2567 79.0697 90.8049 78.51C91.3531 77.9504 92.0126 77.6705 92.7833 77.6705C93.2285 77.6705 93.6305 77.766 93.9894 77.9571C94.3515 78.1481 94.6688 78.4346 94.9412 78.8167V75.6999H95.6289ZM92.8382 78.3492C92.4494 78.3492 92.0906 78.4464 91.7617 78.6407C91.4328 78.8318 91.1703 79.1016 90.9743 79.4501C90.7816 79.7987 90.6853 80.1673 90.6853 80.5561C90.6853 80.9415 90.7833 81.3102 90.9793 81.662C91.1753 82.014 91.4378 82.2888 91.7667 82.4865C92.0989 82.6809 92.4544 82.7781 92.8332 82.7781C93.2152 82.7781 93.5774 82.6809 93.9196 82.4865C94.2618 82.2921 94.5243 82.029 94.707 81.6972C94.893 81.3654 94.9861 80.9918 94.9861 80.5762C94.9861 79.9428 94.7784 79.4132 94.3631 78.9876C93.9511 78.562 93.4428 78.3492 92.8382 78.3492Z" fill="url(#paint16_linear_413_9377)"/>
<path d="M101.779 81.466L102.367 81.7777C102.174 82.1597 101.951 82.4681 101.699 82.7027C101.446 82.9373 101.162 83.1166 100.847 83.2406C100.531 83.3612 100.174 83.4215 99.7752 83.4215C98.8915 83.4215 98.2004 83.13 97.7021 82.5468C97.2037 81.9603 96.9546 81.2984 96.9546 80.5611C96.9546 79.8674 97.1655 79.249 97.5875 78.7061C98.1224 78.0157 98.8383 77.6705 99.7354 77.6705C100.659 77.6705 101.397 78.0241 101.948 78.7312C102.34 79.2306 102.539 79.854 102.546 80.6013H97.6722C97.6855 81.2381 97.8865 81.7609 98.2752 82.1698C98.6639 82.5753 99.144 82.7781 99.7154 82.7781C99.9912 82.7781 100.259 82.7295 100.518 82.6323C100.78 82.5351 101.003 82.4061 101.186 82.2452C101.368 82.0843 101.566 81.8246 101.779 81.466ZM101.779 79.993C101.686 79.6177 101.549 79.3177 101.37 79.0932C101.194 78.8686 100.96 78.6877 100.667 78.5503C100.375 78.4128 100.068 78.3441 99.7453 78.3441C99.2138 78.3441 98.7569 78.5167 98.3749 78.8619C98.0958 79.1133 97.8848 79.4903 97.742 79.993H101.779Z" fill="url(#paint17_linear_413_9377)"/>
<path d="M103.847 77.8113H104.539V78.7564C104.782 78.4078 105.031 78.1531 105.287 77.9922C105.639 77.7778 106.01 77.6705 106.398 77.6705C106.661 77.6705 106.91 77.7225 107.146 77.8263C107.382 77.9302 107.574 78.0693 107.724 78.2436C107.873 78.4145 108.003 78.6609 108.113 78.9826C108.345 78.5536 108.636 78.2285 108.985 78.0073C109.334 77.7828 109.709 77.6705 110.111 77.6705C110.487 77.6705 110.817 77.766 111.103 77.9571C111.392 78.1481 111.606 78.4145 111.746 78.7564C111.885 79.0982 111.955 79.611 111.955 80.2947V83.2808H111.242V80.2947C111.242 79.7082 111.201 79.306 111.118 79.0882C111.035 78.867 110.892 78.6893 110.689 78.5553C110.49 78.4212 110.251 78.3542 109.972 78.3542C109.633 78.3542 109.322 78.4547 109.04 78.6558C108.761 78.8569 108.556 79.125 108.427 79.4602C108.297 79.7953 108.232 80.355 108.232 81.1392V83.2808H107.54V80.4807C107.54 79.8204 107.498 79.373 107.415 79.1384C107.335 78.9005 107.194 78.7111 106.991 78.5704C106.789 78.4263 106.548 78.3542 106.269 78.3542C105.947 78.3542 105.644 78.4531 105.362 78.6508C105.083 78.8452 104.875 79.1083 104.739 79.4401C104.606 79.7719 104.539 80.2796 104.539 80.9633V83.2808H103.847V77.8113Z" fill="url(#paint18_linear_413_9377)"/>
<path d="M112.847 77.8113H113.585L115.448 82.024L117.257 77.8113H118L114.766 85.2816H114.028L115.075 82.8686L112.847 77.8113Z" fill="url(#paint19_linear_413_9377)"/>
<defs>
<linearGradient id="paint0_linear_413_9377" x1="0" y1="7" x2="126.218" y2="19.5856" gradientUnits="userSpaceOnUse">
<stop stop-color="#AF87FF"/>
<stop offset="0.9999" stop-color="#5B7FFF"/>
<stop offset="1" stop-color="#D1DBFF"/>
</linearGradient>
<linearGradient id="paint1_linear_413_9377" x1="0" y1="7" x2="126.218" y2="19.5856" gradientUnits="userSpaceOnUse">
<stop stop-color="#AF87FF"/>
<stop offset="0.9999" stop-color="#5B7FFF"/>
<stop offset="1" stop-color="#D1DBFF"/>
</linearGradient>
<linearGradient id="paint2_linear_413_9377" x1="0" y1="7" x2="126.218" y2="19.5856" gradientUnits="userSpaceOnUse">
<stop stop-color="#AF87FF"/>
<stop offset="0.9999" stop-color="#5B7FFF"/>
<stop offset="1" stop-color="#D1DBFF"/>
</linearGradient>
<linearGradient id="paint3_linear_413_9377" x1="0" y1="7" x2="126.218" y2="19.5856" gradientUnits="userSpaceOnUse">
<stop stop-color="#AF87FF"/>
<stop offset="0.9999" stop-color="#5B7FFF"/>
<stop offset="1" stop-color="#D1DBFF"/>
</linearGradient>
<linearGradient id="paint4_linear_413_9377" x1="0" y1="7" x2="126.218" y2="19.5856" gradientUnits="userSpaceOnUse">
<stop stop-color="#AF87FF"/>
<stop offset="0.9999" stop-color="#5B7FFF"/>
<stop offset="1" stop-color="#D1DBFF"/>
</linearGradient>
<linearGradient id="paint5_linear_413_9377" x1="0" y1="7" x2="126.218" y2="19.5856" gradientUnits="userSpaceOnUse">
<stop stop-color="#AF87FF"/>
<stop offset="0.9999" stop-color="#5B7FFF"/>
<stop offset="1" stop-color="#D1DBFF"/>
</linearGradient>
<linearGradient id="paint6_linear_413_9377" x1="0" y1="7" x2="126.218" y2="19.5856" gradientUnits="userSpaceOnUse">
<stop stop-color="#AF87FF"/>
<stop offset="0.9999" stop-color="#5B7FFF"/>
<stop offset="1" stop-color="#D1DBFF"/>
</linearGradient>
<linearGradient id="paint7_linear_413_9377" x1="0" y1="7" x2="126.218" y2="19.5856" gradientUnits="userSpaceOnUse">
<stop stop-color="#AF87FF"/>
<stop offset="0.9999" stop-color="#5B7FFF"/>
<stop offset="1" stop-color="#D1DBFF"/>
</linearGradient>
<linearGradient id="paint8_linear_413_9377" x1="0" y1="7" x2="126.218" y2="19.5856" gradientUnits="userSpaceOnUse">
<stop stop-color="#AF87FF"/>
<stop offset="0.9999" stop-color="#5B7FFF"/>
<stop offset="1" stop-color="#D1DBFF"/>
</linearGradient>
<linearGradient id="paint9_linear_413_9377" x1="0" y1="7" x2="126.218" y2="19.5856" gradientUnits="userSpaceOnUse">
<stop stop-color="#AF87FF"/>
<stop offset="0.9999" stop-color="#5B7FFF"/>
<stop offset="1" stop-color="#D1DBFF"/>
</linearGradient>
<linearGradient id="paint10_linear_413_9377" x1="0" y1="7" x2="126.218" y2="19.5856" gradientUnits="userSpaceOnUse">
<stop stop-color="#AF87FF"/>
<stop offset="0.9999" stop-color="#5B7FFF"/>
<stop offset="1" stop-color="#D1DBFF"/>
</linearGradient>
<linearGradient id="paint11_linear_413_9377" x1="0" y1="7" x2="126.218" y2="19.5856" gradientUnits="userSpaceOnUse">
<stop stop-color="#AF87FF"/>
<stop offset="0.9999" stop-color="#5B7FFF"/>
<stop offset="1" stop-color="#D1DBFF"/>
</linearGradient>
<linearGradient id="paint12_linear_413_9377" x1="0" y1="7" x2="126.218" y2="19.5856" gradientUnits="userSpaceOnUse">
<stop stop-color="#AF87FF"/>
<stop offset="0.9999" stop-color="#5B7FFF"/>
<stop offset="1" stop-color="#D1DBFF"/>
</linearGradient>
<linearGradient id="paint13_linear_413_9377" x1="0" y1="7" x2="126.218" y2="19.5856" gradientUnits="userSpaceOnUse">
<stop stop-color="#AF87FF"/>
<stop offset="0.9999" stop-color="#5B7FFF"/>
<stop offset="1" stop-color="#D1DBFF"/>
</linearGradient>
<linearGradient id="paint14_linear_413_9377" x1="0" y1="7" x2="126.218" y2="19.5856" gradientUnits="userSpaceOnUse">
<stop stop-color="#AF87FF"/>
<stop offset="0.9999" stop-color="#5B7FFF"/>
<stop offset="1" stop-color="#D1DBFF"/>
</linearGradient>
<linearGradient id="paint15_linear_413_9377" x1="0" y1="7" x2="126.218" y2="19.5856" gradientUnits="userSpaceOnUse">
<stop stop-color="#AF87FF"/>
<stop offset="0.9999" stop-color="#5B7FFF"/>
<stop offset="1" stop-color="#D1DBFF"/>
</linearGradient>
<linearGradient id="paint16_linear_413_9377" x1="0" y1="7" x2="126.218" y2="19.5856" gradientUnits="userSpaceOnUse">
<stop stop-color="#AF87FF"/>
<stop offset="0.9999" stop-color="#5B7FFF"/>
<stop offset="1" stop-color="#D1DBFF"/>
</linearGradient>
<linearGradient id="paint17_linear_413_9377" x1="0" y1="7" x2="126.218" y2="19.5856" gradientUnits="userSpaceOnUse">
<stop stop-color="#AF87FF"/>
<stop offset="0.9999" stop-color="#5B7FFF"/>
<stop offset="1" stop-color="#D1DBFF"/>
</linearGradient>
<linearGradient id="paint18_linear_413_9377" x1="0" y1="7" x2="126.218" y2="19.5856" gradientUnits="userSpaceOnUse">
<stop stop-color="#AF87FF"/>
<stop offset="0.9999" stop-color="#5B7FFF"/>
<stop offset="1" stop-color="#D1DBFF"/>
</linearGradient>
<linearGradient id="paint19_linear_413_9377" x1="0" y1="7" x2="126.218" y2="19.5856" gradientUnits="userSpaceOnUse">
<stop stop-color="#AF87FF"/>
<stop offset="0.9999" stop-color="#5B7FFF"/>
<stop offset="1" stop-color="#D1DBFF"/>
</linearGradient>
</defs>
</svg>
