<svg width="80" height="80" viewBox="0 0 80 80" fill="none" xmlns="http://www.w3.org/2000/svg">
<path d="M80 40C80 62.0914 62.0914 80 40 80C17.9086 80 0 62.0914 0 40C0 17.9086 17.9086 0 40 0C62.0914 0 80 17.9086 80 40Z" fill="url(#paint0_linear_795_2186)"/>
<path d="M57.3333 22.6667H22.6667C20.2617 22.6667 18.355 24.595 18.355 27L18.3333 53C18.3333 55.405 20.2617 57.3333 22.6667 57.3333H57.3333C59.7383 57.3333 61.6667 55.405 61.6667 53V27C61.6667 24.595 59.7383 22.6667 57.3333 22.6667ZM55.1667 53H24.8333C23.6417 53 22.6667 52.025 22.6667 50.8333V40H57.3333V50.8333C57.3333 52.025 56.3583 53 55.1667 53ZM57.3333 31.3333H22.6667V27H57.3333V31.3333Z" fill="#FBFFFF"/>
<defs>
<linearGradient id="paint0_linear_795_2186" x1="0" y1="0" x2="85.8688" y2="6.89336" gradientUnits="userSpaceOnUse">
<stop stop-color="#AF87FF"/>
<stop offset="0.9999" stop-color="#5B7FFF"/>
<stop offset="1" stop-color="#D1DBFF"/>
</linearGradient>
</defs>
</svg>
