<svg width="80" height="80" viewBox="0 0 80 80" fill="none" xmlns="http://www.w3.org/2000/svg">
<path d="M80 40C80 62.0914 62.0914 80 40 80C17.9086 80 0 62.0914 0 40C0 17.9086 17.9086 0 40 0C62.0914 0 80 17.9086 80 40Z" fill="url(#paint0_linear_795_1600)"/>
<path d="M55.1667 22.6667H53V20.5C53 19.3083 52.025 18.3333 50.8333 18.3333C49.6417 18.3333 48.6667 19.3083 48.6667 20.5V22.6667H31.3333V20.5C31.3333 19.3083 30.3583 18.3333 29.1667 18.3333C27.975 18.3333 27 19.3083 27 20.5V22.6667H24.8333C22.4283 22.6667 20.5217 24.6167 20.5217 27L20.5 57.3333C20.5 59.7167 22.4283 61.6667 24.8333 61.6667H55.1667C57.55 61.6667 59.5 59.7167 59.5 57.3333V27C59.5 24.6167 57.55 22.6667 55.1667 22.6667ZM55.1667 55.1667C55.1667 56.3583 54.1917 57.3333 53 57.3333H27C25.8083 57.3333 24.8333 56.3583 24.8333 55.1667V33.5H55.1667V55.1667ZM29.1667 37.8333H33.5V42.1667H29.1667V37.8333ZM37.8333 37.8333H42.1667V42.1667H37.8333V37.8333ZM46.5 37.8333H50.8333V42.1667H46.5V37.8333Z" fill="#FBFFFF"/>
<defs>
<linearGradient id="paint0_linear_795_1600" x1="0" y1="0" x2="85.8688" y2="6.89336" gradientUnits="userSpaceOnUse">
<stop stop-color="#AF87FF"/>
<stop offset="0.9999" stop-color="#5B7FFF"/>
<stop offset="1" stop-color="#D1DBFF"/>
</linearGradient>
</defs>
</svg>
