<svg width="80" height="80" viewBox="0 0 80 80" fill="none" xmlns="http://www.w3.org/2000/svg">
<path d="M80 40C80 62.0914 62.0914 80 40 80C17.9086 80 0 62.0914 0 40C0 17.9086 17.9086 0 40 0C62.0914 0 80 17.9086 80 40Z" fill="url(#paint0_linear_795_3396)"/>
<path d="M51.0283 23.88C49.5117 21.6483 47.7783 19.5683 45.8283 17.705C45.07 16.9683 43.7917 17.6617 44.0083 18.7017C44.42 20.7383 44.8533 23.425 44.8533 25.83C44.8533 30.2933 41.9283 33.9117 37.465 33.9117C34.1283 33.9117 31.3983 31.8967 30.2067 29.015C29.99 28.5817 29.9033 28.3217 29.7733 27.845C29.535 26.935 28.3433 26.6533 27.8233 27.455C27.4333 28.04 27.065 28.625 26.7183 29.2533C24.14 33.6733 22.6667 38.83 22.6667 44.3333C22.6667 53.91 30.4233 61.6667 40 61.6667C49.5767 61.6667 57.3333 53.91 57.3333 44.3333C57.3333 36.7717 54.9933 29.7517 51.0283 23.88ZM39.3717 55.1667C35.515 55.1667 32.395 52.1333 32.395 48.3633C32.395 44.8533 34.67 42.3833 38.4833 41.6033C41.6683 40.9533 44.94 39.5883 47.215 37.4433C47.8217 36.88 48.8183 37.14 48.9917 37.9417C49.49 40.1517 49.75 42.4483 49.75 44.7667C49.7717 50.5083 45.1133 55.1667 39.3717 55.1667Z" fill="#FBFFFF"/>
<defs>
<linearGradient id="paint0_linear_795_3396" x1="0" y1="0" x2="85.8688" y2="6.89336" gradientUnits="userSpaceOnUse">
<stop stop-color="#AF87FF"/>
<stop offset="0.9999" stop-color="#5B7FFF"/>
<stop offset="1" stop-color="#D1DBFF"/>
</linearGradient>
</defs>
</svg>
